<svg xmlns="http://www.w3.org/2000/svg" width="360" height="442">
    <path d="M0 0h360v442H0V0Z" fill="#E3BCA3"/>
    <path d="M0 0h360v442h-38c-4.41-11.026-4.41-11.026-4.875-15.375-1.214-7.72-5.194-14.213-9-20.938-1.214-3.98-1.165-6.917-1.063-11.062.13-5.753-.333-9.57-3.039-14.617-1.631-3.202-2.26-6.51-3.023-10.008h-2a264.271 264.271 0 0 1-3-5l-2-1c-.895-1.863-.895-1.863-1.813-4.313-1.96-5.126-4.075-10.172-6.234-15.218C285 342 285 342 285 340h-2l-1-3c-3.254-1.037-3.254-1.037-7.063-1.688-1.29-.25-2.58-.502-3.91-.761L268 334v-2l-2.52-.184-3.293-.253-3.269-.247C256 331 256 331 253 330c-.41-16.007 1.593-24.793 12-37 2.258-1.223 2.258-1.223 4-2l1-3h2l1-3c1.45-1.252 2.906-2.5 4.402-3.695 2.373-1.938 4.457-4.114 6.598-6.305 1.52-1.522 3.04-3.043 4.563-4.563l2.253-2.253L293 266l2.152-2.277C297 262 297 262 299 262l.79-1.7c1.339-2.545 2.903-4.78 4.585-7.113 6.187-8.772 10.001-16.21 9.875-27.25l.023-2.064c-.012-3.287-.293-5.933-1.351-9.057-1.049-3.204-1.082-4.67.078-7.816 1.777-2.02 1.777-2.02 3.938-3.813l2.152-1.832C321 200 321 200 323 200l.813-1.938C325 196 325 196 328 195c1.036-1.777 1.036-1.777 2-4 1.17-1.886 2.359-3.76 3.563-5.625 2.355-3.61 2.355-3.61 4.437-7.375h2a505.88 505.88 0 0 0 2-10l.578-2.96c2.743-15.56 3.163-31.034-5.328-44.977-2.705-3.774-5.848-6.332-9.71-8.872L326 110v-2l-2.875-.438C320 107 320 107 318 106a121.305 121.305 0 0 0-5.125-.563l-2.758-.253L308 105l-.078-2.492c-.701-13.797-5.04-22.793-14.938-32.48A136.402 136.402 0 0 0 287 65l-1.895-1.586C276.551 56.55 266.352 53.234 256 50v-2l-1.8-.828c-2.127-1.133-3.622-2.3-5.387-3.922-6.02-5.273-12.337-9.343-19.813-12.25l-3.375-1.563c-3.488-1.383-6.744-2.214-10.414-2.91C213 26 213 26 210.766 25.043c-12.923-4.873-27.95-4.34-41.578-4.355l-2.219-.01c-15.093-.04-29.454 1.658-44.156 5.197l-3.407.806C107.508 29.536 96.179 32.956 85 38l-2.96 1.336C64.114 47.85 51.13 58.797 43 77c-1.856 4.146-3.337 6.743-7.063 9.375l-2.097 1.523C32 89 32 89 30 89v2a855.169 855.169 0 0 1-3.563 3.445c-8.238 8.91-9.612 19.251-9.687 30.93l-.063 2.422c-.066 10.282 4.124 18.093 8.887 26.969 1.372 3.112 1.758 4.897 1.426 8.234l-3.063 1.563C15.86 169.245 11.633 175.538 8 184l-1.18 2.36C4.276 194.55 8.103 207.154 11 215c1.82 3.147 1.82 3.147 4 6a451.164 451.164 0 0 1 2.188 4.313C23.21 236.238 34.398 244.713 46 249v2l2.816.375c3.128.446 6.23.987 9.336 1.563l2.83.518c2.01.37 4.02.745 6.028 1.125 5.402.973 10.38 1.509 15.86 1.292 3.332-.1 5.937.123 9.13 1.127 3.725 3.623 5.756 8.551 8.019 13.153 7.334 13.803 26.291 19.38 40.075 24.312l2.199.798c1.447.524 2.898 1.04 4.352 1.544 3.645 1.32 5.145 1.878 7.355 5.193 1.9.467 3.803.928 5.715 1.348 6.723 1.919 12.083 6.16 17.285 10.652a788.291 788.291 0 0 0 5 3c1.813 1.563 1.813 1.563 3 3v2h2l.875 2.313c1.088 2.837 1.088 2.837 3.125 5.687.738 5.084.738 5.084 0 8-5.652 4.906-11.496 6.689-18.592 8.672-6.287 1.9-8.689 4.254-11.928 10.046-1.605 3.56-2.233 6.622-2.796 10.481l-.31 2.048c-.321 2.145-.63 4.293-.936 6.44-.415 2.817-.835 5.634-1.254 8.45l-.306 2.06C152.59 401.523 152.59 401.523 150 408l-1 34H0V0Z" fill="#FEFEFE"/>
    <path d="m168.938 19.75 2.325-.004c15.37.006 30.3.583 44.737 6.254 1.328.334 2.661.65 4 .938 3.657.854 6.746 2.285 10.043 4.062 1.99 1.063 1.99 1.063 4.328 1.89C242.32 36.245 249.783 42.066 256 48v2l2.203.445C276.474 54.521 291.588 65.318 303 80c3.924 6.23 5.135 11.467 5.063 18.75l-.028 3.547L308 105l1.906-.105c6.153-.195 10.47.605 16.094 3.105v2l2.25.758c7.944 3.588 11.822 11.71 14.84 19.445 4.906 15.075 1.871 33.145-3.09 47.797h-2l-.773 2.66c-3.528 9.607-11.173 16.97-19.32 22.852-1.867 1.41-3.46 2.65-4.907 4.488 0 3.8.809 6.426 2 10 1.21 17.306-3.77 27.955-14.125 41.852L299 262h-2l-.762 1.785c-1.393 2.491-2.859 3.838-5.05 5.652-2.472 2.082-4.835 4.16-7.063 6.5C282 278 282 278 280 278l-1 3h-2l-.688 1.75c-1.66 2.845-3.733 4.187-6.312 6.25-12.79 13.125-15.952 23.003-17 41l15 2v2l1.758.148c4.681.448 8.817 1.15 13.242 2.852v3h2l1.207 2.852 1.606 3.773.79 1.871c1.268 2.973 2.584 5.858 4.096 8.715C294 360 294 360 294 364l1.938.75C298 366 298 366 298.75 368.125L299 370h2l.77 2.195 1.043 2.93 1.019 2.883c1.109 3.046 1.109 3.046 2.813 5.914 1.636 3.716 1.495 6.173 1.23 10.203-.181 8.82 2.465 14.82 6.5 22.488 2.575 4.927 4.3 9.258 5.168 14.77.625 3.578 1.576 7.093 2.457 10.617h-48l-2-38-4-2a669.576 669.576 0 0 1-6.25-3.625l-3.266-1.914L256 395l-1 6-2-1c-.414-2.285-.414-2.285-.625-5.063l-.227-2.785L252 390h4v-2c1.715-1.691 1.715-1.691 3.938-3.563l2.214-1.878L264 381c1.294-1.082 1.294-1.082 1.266-3.676-.316-3.956-1.504-6.108-3.516-9.512-3.274-5.802-5.69-11.491-7.75-17.812l-.906-2.684A668.45 668.45 0 0 1 251 341h-2l-.125-1.875L248 337a91.994 91.994 0 0 0-6-2c-.088-3.667-.14-7.333-.188-11l-.076-3.121c-.06-6.38.601-11.064 3.264-16.879h2l.688-2.5c1.561-4.165 3.54-8 6.312-11.5h2v-2h2l.75-1.875c1.487-2.529 2.687-2.843 5.25-4.125l.875-1.813c1.643-3.193 4.353-5.009 7.125-7.187 4.572-3.643 7.874-6.976 11-12 1.625-1.875 1.625-1.875 3-3h2v-2h2l.75-1.75c1.433-2.58 3.034-4.311 5.25-6.25h2l.75-2.063C300 243 300 243 302.125 240.188c4.163-6.995 2.334-18.583.875-26.187h-2c-2.094-3.402-2.18-6.053-2-10l1.793-.918c4.822-2.557 8.507-5.002 12.207-9.082l1.832-1.742c7.28-6.933 13.365-14.49 16.168-24.258l.84-2.602c3.996-13.664 3.522-26.59-2.84-39.398l-2.172-2.707C325 121 325 121 325 118l-1.813-.438c-1.749-.45-3.474-.99-5.187-1.562-6.423-.584-11.333-.123-17 3-1.751 1.582-1.751 1.582-3 3h-2l-.867 1.734L290 134h-2l-.375 2.188c-.615 2.77-1.51 5.209-2.625 7.812h-1c.263-9.873 1.403-18.782 4.16-28.281 1.194-5.286 2.06-10.829-.973-15.656C285.29 96.769 285.29 96.769 282 96l-3-5-3-1c-1.844-1.947-3.495-4.008-5.184-6.09-1.864-1.96-3.395-2.778-5.816-3.91l-5-5-3-1-2.375-2.563c-2.36-2.54-2.36-2.54-5-3.187-3.562 1.018-5.066 3.083-7.563 5.746-13.523 13.14-35.15 18.1-53.449 18.207l-2.43.02c-2.624.018-5.247.024-7.87.027l-2.744.007c-12.828.012-25.488-.534-38.256-1.757-11.336-1.084-22.546-1.801-33.938-1.813l-3.663-.015C92.917 88.726 86.6 89.36 80 91l-1 3-3.063 1.875L73 98c-.502 2.67-.502 2.67 0 5l2 1v2l1.818.77c7.093 3.998 12.752 15.472 15.56 22.855.732 3.124 1.176 6.2 1.622 9.375l.503 2.642c2.025 11.026 1.916 22.119 2.06 33.296.044 3.06.09 6.121.142 9.182.032 1.89.059 3.782.08 5.673.071 4.506.31 8.772 1.215 13.207-6.04-2.555-10.445-7.445-15-12-1.49-1.386-2.99-2.76-4.5-4.125l-2.219-2.008c-2.267-1.95-2.267-1.95-5-3.484C69 180 69 180 68 178c-1.63-.747-3.266-1.48-4.934-2.137C61 175 61 175 59.027 173.918c-7.91-4.184-16.884-3.993-25.527-2.168-8.428 3.01-12.593 8.437-16.5 16.25a74.6 74.6 0 0 0-.098 4.57l.01 2.715.026 2.84.013 2.863c.012 2.338.028 4.675.049 7.012h3l3 6 1.188 2.125C25 218 25 218 25 222h2c.916 1.425 1.832 2.85 2.746 4.277 3.726 5.12 8.344 8.184 14.36 9.985C46 237 46 237 47.738 238.416c9.615 6.735 23.829 6.562 35.136 7.334 1.67.125 3.341.251 5.012.379 4.037.306 8.074.593 12.113.871l.988 2.451 1.325 3.24 1.3 3.202c5.505 12.335 14.02 19.236 26.387 24.107 3.752 1.295 7.538 2.483 11.328 3.662 3.676 1.185 7.03 2.429 10.36 4.4 3.108 1.819 5.885 2.948 9.312 4 4.473 1.422 8.73 2.997 13 4.938v2l4 1v2h2v2l1.75.188c2.25.812 2.25.812 4.125 3.187 1.96 2.818 1.96 2.818 5.125 4 3.28 1.777 4.34 3.383 6 6.668 1.065 2.084 2.284 3.998 3.563 5.957 3.066 4.883 5.437 9.099 5.437 15l4 2-1.934.367-2.504.508-2.496.492L201 343l-1 2h-3v2a97.457 97.457 0 0 1-5 3l-2.438 2.063c-4.232 2.917-9.443 2.976-14.417 3.542-3.167.294-3.167.294-6.145 1.395l-.113 2.21c-.51 8.105-1.67 15.951-3.059 23.942-.892 5.147-1.681 10.307-2.453 15.473l-.373 2.475a255.602 255.602 0 0 0-2.607 27.654c-.199 4.493-.524 8.82-1.395 13.246h-10c-.075-4.696-.129-9.39-.165-14.087a686.522 686.522 0 0 0-.061-4.783 674.496 674.496 0 0 1-.067-6.911c-.015-.703-.03-1.405-.047-2.129-.001-4.555.883-7.984 2.615-12.184 1.069-2.81 1.425-5.598 1.787-8.574l.477-3.709.461-3.81c3.673-29.901 3.673-29.901 11.668-37.372 3.79-2.342 8.052-3.285 12.312-4.459 4.576-1.33 8.284-2.892 12.02-5.982.943-2.729.609-5.195 0-8-1.42-2.227-1.42-2.227-3-4v-4h-2c-1.188-1.445-2.373-2.893-3.488-4.395-1.933-2.053-4.072-3.2-6.512-4.605-2.52-1.767-5.01-3.57-7.5-5.379-3.635-2.357-7.057-3.51-11.25-4.558L153 302l-1-3-2.375-.25c-3.927-.812-7.318-2.122-11.008-3.66a159.55 159.55 0 0 0-4.922-1.961C114.88 286 101.515 277.285 92 259v-2l-2.691.14C74.683 257.555 59.99 255.309 46 251v-2l-2.238-.344C33.672 246.26 24.027 235.998 18 228c-.999-1.676-1.994-3.354-2.93-5.066a92.378 92.378 0 0 0-2.328-3.961C9.084 212.915 7.307 206.933 6 200l-.543-2.86c-1.244-8.72 1.257-15.139 6.23-22.265 3.557-4.446 7.68-8.557 12.313-11.875h3c-1.698-5.418-4.008-10.38-6.465-15.488-3.312-7.576-5-13.837-4.785-22.137l.016-2.445C15.926 110.582 19.309 100.125 28 91h2v-2c1.68-1.508 1.68-1.508 3.875-3.125l2.18-1.633C38 83 38 83 40 83l1.125-3.813c6.662-19.468 21.189-30.639 38.813-39.874 15.211-7.22 30.85-11.618 47.187-15.5l3.286-.795c12.778-2.967 25.47-3.254 38.526-3.268Z" fill="#050404"/>
    <path d="M241 316h1v19l6 2c.875 2.125.875 2.125 1 4h2c2.775 6.083 5.279 12.24 7.704 18.469 1.477 3.715 3.122 7.163 5.171 10.594 1.393 2.448 2.205 4.24 2.938 7-1.33 4.803-4.967 7.894-8.813 10.937h-2v2h-4l2 10 1-6c16.369 8.738 16.369 8.738 18 12 1.518 11.918 1 24.041 1 36H159c.81-21.08 2.093-41.44 6.25-62.027.597-3.023 1.067-6.051 1.5-9.102l.38-2.641c.242-1.703.473-3.408.692-5.114.295-2.055.727-4.09 1.178-6.116 3.503-2.335 5.658-2.441 9.813-2.875 6.937-.902 10.27-2.209 15.187-7.125h3v-2h3l1-3c3.313-1.125 3.313-1.125 7-2l1.991-.557c2.68-.59 5.273-.419 8-.328 7.457.238 12.608.11 19.009-4.115l3-1-.035-3.684-.028-4.753-.025-2.432c-.009-2.044.036-4.088.088-6.131l1-1Z" fill="#712533"/>
    <path d="m256.5 99.813 2.281-.043c2.468.256 4.083 1.002 6.219 2.23.658 5.263.528 8.945-2.688 13.313-3.53 4.17-6.798 7.66-12.312 8.687-1.749.066-3.5.086-5.25.063l-2.703-.028L240 124l-.313 2.688C238.97 130.15 237.815 132 236 135c-1.108 2.967-2.07 5.973-3 9l5-1-1.277 1.32-1.66 1.805-1.653 1.758c-4.548 6.829-3.508 20.506-1.98 28.319 1.813 6.97 4.171 15.86 10.43 20.04 9.159 3.066 15.58 1.93 24.14-2.242 6.49-3.673 11.1-8.555 13.5-15.66 2.038-9.538.64-18.162-4.5-26.34v-2h-2l-2-5c3.983 2.102 6.456 4.274 9 8a68.913 68.913 0 0 1 1 4l2 1v-25l2-1v10l3-8h2l.75-3.188c2.025-6.905 7.286-11.131 13.25-14.812 5.56-1.872 12.34-1.886 17.875.063 3.857 2.39 5.326 4.927 7.125 8.937l1.316 2.762c6.81 14.532 6.035 29.277.684 44.238-4.805 9.872-12.41 18.265-21 25l-2 2.063c-2.581 2.5-5.28 4.937-9 4.937l-1 2a2835.33 2835.33 0 0 1-3.813-7.063l-1.08-1.99C287 185.573 287 185.573 287 181h-2l-1-5-4 10h-2l-.805 1.813c-1.972 3.609-4.937 5.755-8.195 8.187l-1.676 1.273C260.708 201.41 252.506 200.51 245 200l-3-1 4 5 1.7-.473c4.858-1.113 9.976-1.81 14.472.672 3.233 2.652 5.231 4.556 5.828 8.801-.03 1.98-.095 3.96-.188 5.938-.075 4.884-.075 4.884 2.188 9.187l2 1.875v2h2c1.871 6.39 2.272 14.095-.5 20.25-4.02 6.755-9.348 12.25-17.047 14.363-4.513.712-8.894.56-13.453.387l-1 11h-2l.25 2.75c-.25 3.25-.25 3.25-2.125 5.625C236 288 236 288 234 288v2c-9.523 8.572-19.189 10.229-31.563 10.375l-2.65.043c-9.13-.068-16.292-2.204-23.787-7.418-1.406-.53-2.823-1.03-4.25-1.5-3.595-1.26-3.595-1.26-5-3.438L166 286l-2.125-2.125L162 282v-2l-1.809-.766c-5.344-3.01-8.89-9.737-11.191-15.234v-3h-8v-3l2.125-.262c9.623-1.425 15.104-4.124 21.188-11.8 2.818-4.04 4.237-7.367 5.187-12.188 1.105-5.516 3.03-8.047 7.367-11.543 4.5-2.547 10.066-2.997 15.133-2.207 5.256 1.976 10.538 4.436 14 9v2c-2.473-.877-4.735-1.83-6.95-3.246-5.907-3.744-11.079-5.224-18.05-3.754-4.432 2.216-6.55 4.722-8.188 9.375.233 4.488 1.301 8.117 4.188 11.625 3.57 1.725 6.478 2.256 10.422 2.309l3.11.076c2.13.035 4.26.066 6.39.094 9.511.243 16.264 2.015 24.078 7.521l2.5 1c2.5 1 2.5 1 5.438 3 6.11 3.99 11.834 4.416 18.937 4.5l2.605.125c6.8.083 10.675-1.907 15.52-6.625 4.998-5.616 5.675-10.54 5.355-18.004-.597-5.032-1.943-7.8-5.793-11.059L263 226l-1.813-2.313c-3.686-4.528-8.2-8.208-12.875-11.687-2.55-2.206-4.246-4.52-6.101-7.316-1.185-1.754-1.185-1.754-2.86-3.274C238 200 238 200 238 198h-2l-3-10h-2c-2.763-9.075-3.52-17.542-3.5-27l-.086-3.867c-.022-10.982 3.186-18.755 8.336-28.258 1.782-3.432 2.513-6.018 2.688-9.875.307-5.871 2.887-10.475 6.562-15l3-1v-2c2.887-.82 5.5-1.162 8.5-1.188Z" fill="#856352"/>
    <path d="M321 186c.976 3.383.859 5.566 0 9l1.813-1.563L325 192l3 1c0 2 0 2-1.504 3.516l-2.058 1.734-2.188 1.89a90.35 90.35 0 0 1-4.375 3.407c-1.86 1.395-3.436 2.625-4.875 4.453 0 3.8.809 6.426 2 10 1.21 17.306-3.77 27.955-14.125 41.852L299 262h-2l-.762 1.785c-1.393 2.491-2.859 3.838-5.05 5.652-2.472 2.082-4.835 4.16-7.063 6.5C282 278 282 278 280 278l-1 3h-2l-.688 1.75c-1.66 2.845-3.733 4.187-6.312 6.25-12.79 13.125-15.952 23.003-17 41l15 2v2l1.758.148c4.681.448 8.817 1.15 13.242 2.852v3h2l1.207 2.852 1.606 3.773.79 1.871c1.268 2.973 2.584 5.858 4.096 8.715C294 360 294 360 294 364l1.938.75C298 366 298 366 298.75 368.125L299 370h2l.77 2.195 1.043 2.93 1.019 2.883c1.109 3.046 1.109 3.046 2.813 5.914 1.636 3.716 1.495 6.173 1.23 10.203-.181 8.82 2.465 14.82 6.5 22.488 2.575 4.927 4.3 9.258 5.168 14.77.625 3.578 1.576 7.093 2.457 10.617h-48l-2-38-4-2a669.576 669.576 0 0 1-6.25-3.625l-3.266-1.914L256 395l-1 6-2-1c-.414-2.285-.414-2.285-.625-5.063l-.227-2.785L252 390h4v-2c1.715-1.691 1.715-1.691 3.938-3.563l2.214-1.878L264 381c1.294-1.082 1.294-1.082 1.266-3.676-.316-3.956-1.504-6.108-3.516-9.512-3.274-5.802-5.69-11.491-7.75-17.812l-.906-2.684A668.45 668.45 0 0 1 251 341h-2l-.125-1.875L248 337a91.994 91.994 0 0 0-6-2c-.088-3.667-.14-7.333-.188-11l-.076-3.121c-.06-6.38.601-11.064 3.264-16.879h2l.688-2.5c1.561-4.165 3.54-8 6.312-11.5h2v-2h2l.75-1.875c1.487-2.529 2.687-2.843 5.25-4.125l.875-1.813c1.643-3.193 4.353-5.009 7.125-7.187 4.572-3.643 7.874-6.976 11-12 1.625-1.875 1.625-1.875 3-3h2v-2h2l.75-1.75c1.433-2.58 3.034-4.311 5.25-6.25h2l.75-2.063C300 243 300 243 302.125 240.188c4.163-6.995 2.334-18.583.875-26.187h-2c-2.094-3.402-2.18-6.053-2-10l1.793-.918c4.822-2.557 8.507-5.002 12.207-9.082 1.432-1.443 2.87-2.88 4.313-4.313l2.113-2.113L321 186Z" fill="#0F0B0B"/>
    <path d="m197 345 2 1-.535 2.886c-.661 3.573-1.318 7.146-1.974 10.719l-.852 4.617c-1.465 7.903-2.919 15.764-3.639 23.778l6 2v2l2.125.313c3.317.793 5.94 1.953 8.875 3.687l1 3c3.613-7.87 2.342-16.2.445-24.398-.827-4.834-.596-9.715-.445-14.602h1v6l3 1 .138 1.753c.483 6.101.97 12.202 1.461 18.303.182 2.267.362 4.535.541 6.802 1.367 17.322 1.367 17.322 3.497 34.562.457 4.505.363 9.052.363 13.58h-61c.81-21.08 2.093-41.44 6.25-62.027.597-3.023 1.067-6.051 1.5-9.102l.38-2.641c.242-1.703.473-3.408.692-5.114.295-2.055.727-4.09 1.178-6.116 3.503-2.335 5.658-2.441 9.813-2.875 6.937-.902 10.27-2.209 15.187-7.125h3v-2Z" fill="#77685D"/>
    <path d="M202 225c2.625 2.188 2.625 2.188 4 4v2c-2.473-.877-4.735-1.83-6.95-3.246-5.907-3.744-11.079-5.224-18.05-3.754-4.432 2.216-6.55 4.722-8.188 9.375.233 4.488 1.301 8.117 4.188 11.625 3.57 1.725 6.478 2.256 10.422 2.309l3.11.076c2.13.035 4.26.066 6.39.094 6.544.167 12.014 1.011 18.078 3.521-2 1-2 1-5 1l3.43 1.715L228 261v3c-15.028 5.586-32.728 3.066-48-1v-2c-5.846-.974-11.559-1.706-17.438-.5-2.697 2.59-2.328 5.877-2.562 9.5h2v-2c3.037.918 5.683 1.8 8.375 3.5 6.51 3.72 13.333 3.77 20.625 3.625l2.637-.027c2.12-.024 4.242-.06 6.363-.098v-2h2v-4l3.402-.113c12.639.125 12.639.125 23.598-4.887 1.63.22 3.259.448 4.883.707 3.833.53 7.692.666 11.554.856l2.506.13c2.02.105 4.038.207 6.057.307v1h-11l-1 11h-2l.25 2.75c-.25 3.25-.25 3.25-2.125 5.625C236 288 236 288 234 288v2c-9.523 8.572-19.189 10.229-31.563 10.375l-2.65.043c-9.13-.068-16.292-2.204-23.787-7.418-1.406-.53-2.823-1.03-4.25-1.5-3.595-1.26-3.595-1.26-5-3.438L166 286l-2.125-2.125L162 282v-2l-1.809-.766c-5.344-3.01-8.89-9.737-11.191-15.234v-3h-8v-3l2.125-.262c9.623-1.425 15.104-4.124 21.188-11.8 2.818-4.04 4.237-7.367 5.187-12.188 1.105-5.516 3.03-8.047 7.367-11.543 8.686-4.916 17.282-2.076 25.133 2.793Z" fill="#C28D7C"/>
    <path d="m169 160 1.848.992c6.338 3.817 9.915 10.533 13.152 17.008.503 8.46.864 16.272-3 24l-1.188 2.5L179 206h-2l-.172 1.742c-1.202 3.276-3.252 4.396-6.078 6.383l-2.89 2.07c-7.409 4.676-15.334 4.856-23.86 3.805-9.592-2.776-15.912-9.708-20.957-18.008-3.767-7.195-3.958-13.966-3.043-21.992 2.247-6.68 5.499-12.486 11-17l2.313-2.125c10.166-7.093 25.153-7.489 35.687-.875Z" fill="#FBFBFA"/>
    <path d="M325 118c1.706 2.409 2.812 4.352 4 7l1.316 2.762c6.81 14.532 6.035 29.277.684 44.238-4.815 9.892-12.423 18.224-21 25l-1.875 2.188c-2.891 2.466-5.408 2.526-9.125 2.812-4-5.75-4-5.75-4-8h6v-2l3.625-1.5c10.192-5.24 12.988-16.305 16.375-26.5 2.21-7.792 2.755-18.437-.164-26.027-1.514-2.147-2.583-3.62-4.836-4.973-2.864-.384-4.417-.327-6.95 1.094l-1.738 1.406c-3.131 2.5-3.131 2.5-5.312 2.5l-.75 1.938c-1.378 3.377-2.9 6.672-4.445 9.976-.985 2.18-.985 2.18-.805 5.086l.77-1.574c3.854-7.81 3.854-7.81 6.23-11.426l1.188-1.813c3.035-1.989 6.31-1.86 9.812-1.187 2.766 2.587 3.867 5.375 4.177 9.17.64 26.25.64 26.25-7.177 35.893a85.926 85.926 0 0 1-3 2.937l-2.063 2c-1.937 1-1.937 1-4.625.75C299 189 299 189 298 188c-.1-2.802-.139-5.573-.125-8.375l-.012-2.367c.006-3.335.076-6.074 1.137-9.258h2l.25-1.875c.986-2.794 2.184-2.842 4.75-4.125.805-2.05.805-2.05 1-4-4.09 2.1-5.754 4.043-8 8h-2l-.55 1.906c-1.606 5.465-3.386 10.786-5.45 16.094-3.184-3.461-3.438-6.421-4-11l-1.008-2.063c-1.507-4.462-1.33-8.821-1.305-13.5l.004-2.969c.096-7.217.884-13.626 3.309-20.468h2l.75-3.188c2.025-6.905 7.286-11.131 13.25-14.812 6.962-2.344 14.787-1.852 21 2Z" fill="#DEB8A2"/>
    <path d="M268 144c3.125 2.125 3.125 2.125 5 4v2h2c3.445 4.229 5.684 8.52 6 14l.188 2.723c.372 9.206-1.624 15.318-7.313 22.527-5.697 6.164-13.298 9.362-21.563 10.063-5.63-.116-10.87-1.79-14.851-5.903-7.765-11.266-9.445-26.387-7.057-39.653.748-3.238 1.34-5.46 3.534-8.007 11.622-6.641 22.03-8.011 34.062-1.75Z" fill="#F9F9F8"/>
    <path d="m205 342 2 4 1-4 16 1c-.782 3.127-1.602 5.502-2.938 8.375-1.585 3.487-2.934 6.959-4.062 10.625l1.688.625C221 364 221 364 223.438 366.938c2.288 3.135 2.288 3.135 5.195 4.421C231 373 231 373 231.559 375.363l-.121 2.95-.133 3.57c-.37 5.516-.959 11.014-1.518 16.513-1.374 14.482-1.472 29.068-1.787 43.604h-8c-.8-7.25-1.59-14.5-2.375-21.75l-.351-3.236c-1.523-14.105-2.908-28.182-3.64-42.353l-.177-3.09-.126-2.633L213 367l-2-1c.565 6.467.565 6.467 1.563 12.875C213.601 386.3 214.286 393.57 210 400l-.688-1.875c-1.73-2.8-3.221-3.119-6.312-4.125l-5-2v-2l-1.875-.438C194 389 194 389 192 388c-.41-8.048.943-15.68 2.399-23.558.415-2.264.81-4.531 1.205-6.8.262-1.45.526-2.9.79-4.349l.351-2.04C197.86 345.386 198.606 342 205 342Z" fill="#77675D"/>
    <path d="M270.063 90.375 272 92v2l-1.938-.5c-4.049-.661-7.98-1.086-12.062-.5-2.57 1.813-2.57 1.813-4 4 5.61 1.519 11.036 2.476 16.813 3.063 7.813.812 7.813.812 11.187 1.937l1-2 2 1-1-5c4.003 3.736 5.882 5.93 6.2 11.488-.051 5.181-1.316 9.966-2.637 14.95l-.698 2.755C285.15 131.85 285.15 131.85 284 133c-.158 1.852-.251 3.71-.316 5.566l-.127 3.409-.12 3.588-.13 3.6c-.107 2.945-.209 5.89-.307 8.837l-3-1a270.776 270.776 0 0 1-2.117-5.21c-1.37-2.776-3.3-4.176-5.883-5.79h-3c-1.938-.84-1.938-.84-4-1.938-5.745-3.035-10.544-3.654-17-3.062-2.346.97-4.68 1.969-7 3-2.726.246-5.256.144-8 0 .979-5.564 2.387-10.303 5.098-15.273 1.043-1.886 1.043-1.886 1.902-4.727l2.816-.227c9.425-.932 9.425-.932 16.922-6.21L261 116l1.875-2.313c1.596-3.812 1.866-7.588 2.125-11.687-4.184-1.286-8.114-.942-12.441-.742C250 101 250 101 248.16 99.492L247 98l-2.813 1.438C241 101 241 101 238 102a407.13 407.13 0 0 0-2 4c-1.805 1.668-1.805 1.668-3.875 3.188l-2.055 1.542c-2.054 1.26-3.716 1.832-6.07 2.27v-2a78.644 78.644 0 0 1 4.5-3.688c3.311-2.574 6.52-5.18 9.625-8 8.587-7.552 20.44-14.099 31.938-8.937Z" fill="#E0BAA3"/>
    <path d="m242 336 .184 2.59.254 3.348c.08 1.102.162 2.204.246 3.34.02 2.633.02 2.633 1.316 3.722l1-11 4 1v2h2c2.775 6.083 5.279 12.24 7.704 18.469 1.477 3.715 3.122 7.163 5.171 10.594 1.393 2.448 2.205 4.24 2.938 7-1.33 4.803-4.967 7.894-8.813 10.937h-2v2h-4l.77 3.375c1.763 7.792 3.479 15.59 4.98 23.438l.734 3.832c.44 2.864.626 5.468.516 8.355-3.81-2.77-4.068-6.629-5-11h-2l-1.207-3.07-1.606-4.055-.79-2.016A130.099 130.099 0 0 0 243 397a760.962 760.962 0 0 1-3.656-7.281c-.92-1.863-1.86-3.717-2.813-5.563-1.993-4.03-3.48-7.195-3.719-11.719A47.925 47.925 0 0 1 240 359h2l-1.5-1.813C239 355 239 355 239 352l-1.813-.813c-2.174-1.18-3.455-2.455-5.187-4.187l-3-1c-.75-2-.75-2-1-4 1-1 1-1 4.063-1.063L235 341v-2c4.385-3 4.385-3 7-3Z" fill="#76675E"/>
    <path d="M166.808 118.889c7.356 2.256 14.214 2.53 21.88 2.423l3.548.01c6.264-.039 11.773-.468 17.764-2.322v2c-12.343 5.724-27.389 6.175-40.313 2.062l-3-1.105c-3.58-1.275-6.913-1.661-10.687-1.957v2l2.187.5c4.104 2.188 5.89 5.334 7.813 9.5.618 2.404.844 4.508 1 7-5.931 4.218-10.79 4.886-18 4-5.027-1.74-9.353-5.127-13-9v-2h-2l-1-5c-7.191 1.025-13.963 2.797-20 7-1.296 2.057-1.296 2.057-2 4h-2l-1 5h-2v8h-4v-5h2l.187-3.063c.718-4.525 2.5-7.791 5.813-10.937 4.212-2.9 8.547-5.49 13-8l-3-2c-.188-3.125-.188-3.125 0-6-6.312-.462-10.802 1.534-16 5l-3-1c16.246-18.277 46.647-7.177 65.808-1.111Z" fill="#DEB9A3"/>
    <path d="m197 345 2 1-.535 2.886c-.661 3.573-1.318 7.146-1.974 10.719l-.852 4.617c-1.465 7.903-2.919 15.764-3.639 23.778l6 2v2l2.125.313c3.317.793 5.94 1.953 8.875 3.687l1 3c3.613-7.87 2.342-16.2.445-24.398-.827-4.834-.596-9.715-.445-14.602h1v6l3 1 .138 1.753c.483 6.101.97 12.202 1.461 18.303.182 2.267.362 4.535.541 6.802 1.367 17.322 1.367 17.322 3.497 34.562.457 4.505.363 9.052.363 13.58h-20c-3.341-6.682-3.341-6.682-4-10.375-.615-3.103-1.427-5.885-2.625-8.813-1.33-3.47-2.014-6.06-1.375-9.812 1.375-2.598 2.865-4.967 5-7h3l.813-1.688c1.288-2.51 2.716-4.905 4.187-7.312h-3v-2l-2-.25c-4.037-1.01-7.317-2.815-11-4.75v-12h2l.148-2.457c.44-6.51 1.133-12.81 2.45-19.203.515-2.601.515-2.601.402-6.34l-2-1 2-2h3v-2Z" fill="#796A5F"/>
    <path d="M255 342c5.75-.12 11.354-.168 17 1 2.99 3.023 3.534 5.747 4.063 9.89l.47 3.555.467 3.805.511 3.92c.804 6.17 1.554 12.346 2.305 18.521l.38 3.11c.244 2.005.487 4.01.728 6.015a195.353 195.353 0 0 0 2.639 16.059c2.264 11.225 2.71 22.716 3.437 34.125h-9a3125.841 3125.841 0 0 0-1.172-14.252c-.135-1.614-.266-3.23-.395-4.844-.187-2.327-.383-4.653-.581-6.978l-.168-2.176c-.436-4.953-1.203-8.87-4.309-12.813-2.67-2.177-5.36-3.562-8.473-5.007C261 395 261 395 258 393c.125-1.75.125-1.75 1-4a249.325 249.325 0 0 1 6-4c2.512-2.243 2.512-2.243 4-5-.352-4.844-2.026-8.475-4.25-12.75l-.946-1.85a428.276 428.276 0 0 0-4.343-8.252c-2.745-5.185-4.134-9.268-4.461-15.148Z" fill="#76675D"/>
    <path d="M236 265c3.142.257 6.289.408 9.438.563l2.505.13c2.02.105 4.038.207 6.057.307v1h-11l-1 11h-2l.25 2.75c-.25 3.25-.25 3.25-2.125 5.625C236 288 236 288 234 288v2c-12.445 11.203-26.251 10.428-42 10v-1h8v-2l-2-1c1-2 1-2 3.438-3 2.917-.82 5.645-1.337 8.625-1.813 4.695-.895 6.925-2.354 9.937-6.187l1.688-1.75c2.038-3.494 2.595-7.3 3.312-11.25h-2l.313 2c-.522 5.007-3.086 9.108-6.922 12.367-4.308 2.707-8.365 3.28-13.391 3.633l-.313-1.938c-.926-4.127-2.304-8.068-3.687-12.062l1.938-1.875c2.1-1.951 2.1-1.951 3.062-4.125 2.371-.309 2.371-.309 5.438-.438 9.434-.63 17.676-6.065 26.562-4.562Z" fill="#C38F7D"/>
    <path d="m279 355 1 3h2l.77 2.527c3.076 10.06 6.328 19.885 10.242 29.653C294 393 294 393 294 396h2c1.318 3.727 2.628 7.457 3.938 11.188l1.13 3.197 1.084 3.095 1 2.841c.807 2.55 1.379 5.049 1.848 7.679h2l.367 2.082.508 2.73.492 2.708c.545 2.707.545 2.707 2.633 5.48v5h-21c-2.213-13.929-4.298-27.852-5.993-41.854-.612-5.043-1.267-10.066-2.07-15.084-.793-4.968-1.457-9.943-2.062-14.937l-.266-2.129c-.516-4.374-.69-8.602-.609-12.996Z" fill="#75675C"/>
    <path d="M217 364c4.367 1.323 7.136 3.655 10.45 6.66 1.526 1.43 1.526 1.43 3.55 2.34.26 7.662-.148 15.076-.938 22.688-1.57 15.386-1.727 30.86-2.062 46.312h-8c-5.293-46.414-5.293-46.414-6-63.188l-.162-3.243-.088-2.924-.078-2.458c.41-2.74 1.534-4.121 3.328-6.187Z" fill="#F6F2F3"/>
    <path d="m234 388 3 2v4h2v6h2l.75 2a89.852 89.852 0 0 0 3.125 6.688c1.563 3.068 2.885 6.162 4.125 9.375 1.219 3.139 2.538 6.037 4.25 8.937 1.75 3 1.75 3 1.75 5h2l3 10h-28c-.046-7.048-.086-14.095-.11-21.143-.01-2.397-.024-4.795-.04-7.193-.025-3.445-.036-6.89-.045-10.336l-.032-3.252v-3.032l-.014-2.665c.258-2.551.955-4.18 2.241-6.379Z" fill="#A10111"/>
    <path d="M169 243c3.077 1.026 3.808 1.808 6 4l3 1v2h36l1 2h-5l3.43 1.715L228 261v3c-15.028 5.586-32.728 3.066-48-1v-2l-3.063-.438L173 260l-3.75-.375c-3.46-.665-3.959-1.225-6.25-3.625-2.163.228-2.163.228-4 1l-1-2h2v-2a340.854 340.854 0 0 1 4.465-3.625c2.058-1.844 3.28-3.933 4.535-6.375Z" fill="#BF8C7B"/>
    <path d="m267 221 .25 1.688c.972 2.996 2.773 4.888 4.75 7.312v2h2c1.871 6.39 2.272 14.095-.5 20.25-3.643 6.197-8.645 11.425-15.5 13.75-2.476.243-2.476.243-5.055.23l-2.863-.005-2.957-.038-2.934-.001c-4.133-.026-8.14-.099-12.222-.784-3.75-.508-4.913.507-7.969 2.598-4.555 1.298-9.12 1.114-13.813 1.063l-2.388-.014c-1.933-.012-3.866-.03-5.799-.049v4h-2v2c-6.188 3.094-17.974 1.64-24.5-.188-4.787-1.71-9.172-4.167-13.5-6.812v2h-2c.481-7.336.481-7.336 2.563-10 5.925-2.431 11.625-.937 17.437 1v2l3.656.402a135330.749 135330.749 0 0 1 7.242.8c3.782.418 7.557.854 11.329 1.353 8.86 1.045 17.118.59 25.773-1.555v-3l-1.652-.48c-5.833-1.805-11.27-4.085-16.348-7.52l-1-2c4.84.475 7.953 1.338 12 4l2.438.938C226 257 226 257 228.938 259c6.11 3.99 11.834 4.416 18.937 4.5l2.605.125c6.8.083 10.675-1.907 15.52-6.625 4.998-5.616 5.675-10.54 5.355-18.004-.622-5.244-2.125-7.91-6.043-11.371L263 226l1-2 2 1 1-4Z" fill="#390A10"/>
    <path d="M255 394c16.369 8.738 16.369 8.738 18 12 1.517 11.91 1.097 24.023 1 36h-10l-2-10-2 4c-3.145-5.284-3.145-5.284-2.465-8.637.626-4.528-.439-8.16-1.535-12.55-1.676-7.196-2.519-13.467-1-20.813Z" fill="#78695E"/>
    <path d="M51.043 186.57c4.826 1.323 4.826 1.323 6.957 2.43l1 3 2.063.813c4.719 1.907 9.628 4.867 12.175 9.382L74 204c-4.037-1.934-7.768-4.294-11.563-6.66-3.76-2.067-6.944-2.465-11.203-2.438l-2.695.01-2.789.025-2.836.014c-2.305.012-4.61.028-6.914.049l-1 3h-2c1.222 6.515 4.264 10.42 9 15l2 1v2c2.332 1.206 4.496 2.165 7 3v2l9 2v2l1.688.375c2.538.686 4.875 1.639 7.312 2.625 5.964 2.221 11.674 2.78 18 3-.6-5.72-.6-5.72-3.375-10.605-4.39-3.304-9.378-4.932-14.625-6.395v-1c6.605-.472 10.315.762 16 4l3.188 1.438c3.193 1.774 5.346 3.885 7.812 6.562l1 1c.375 2.375.375 2.375 0 5-5.388 4.056-10.533 3.575-17 3-6.229-1.086-12.172-2.532-18-5l-2.246-.93-2.191-.945-2.184-.93c-5.44-2.733-10.033-6.45-14.629-10.382-3.649-3.232-3.649-3.232-7.75-5.813a133.892 133.892 0 0 1-3-6l-1.188-1.938C27.56 198.885 27.645 196.38 28 193c5.598-8.686 13.62-8.196 23.043-6.43Z" fill="#735240"/>
    <path d="M316 132c3.537 2.278 5.329 5.183 7 9 2.79 14.543-1.322 30.671-9.32 42.938-2.72 3.34-5.856 6.056-9.68 8.062h-3v2h-6l1.813 3.375 1.019 1.898c1.216 2.032 1.216 2.032 4.168 3.727l-3 1-1 2c-12.319-22.425-12.319-22.425-12-30l1.375 1.875c1.596 2.184 1.596 2.184 3.625 4.125l.55-2.23c2.633-10.218 2.633-10.218 5.45-13.77h2l.25-1.75c.976-2.928 2.385-4.302 4.75-6.25h3c-.389 2.819-.708 3.772-3 5.563L302 165l-1 3h-2v20c4.748 1.533 4.748 1.533 7.5-.5 7.987-7.987 10.863-16.63 10.91-27.906l-.035-2.844.035-2.89c-.022-5.39-.44-9.177-3.41-13.86h-10l-.75 2.625c-1.324 3.574-3.08 6.256-5.25 9.375a85.912 85.912 0 0 0-2 4c-1.282-2.961-.957-4.126.117-7.242.566-1.22 1.153-2.432 1.758-3.633l.95-1.891c3.56-6.6 9.106-12.347 17.175-11.234Z" fill="#5E4031"/>
    <path d="M241 362c2.346.806 3.661 1.482 5.031 3.578 1.36 3.4 1.889 6.89 2.469 10.485l.77 4.578.373 2.252c.618 3.646 1.324 7.276 2.025 10.908C252 396 252 396 252 400h2l.586 3.219c1.566 8.785 1.566 8.785 3.601 17.469.72 2.936 1 5.31.813 8.312-3.81-2.77-4.068-6.629-5-11h-2l-1.207-3.07-1.606-4.055-.79-2.016A130.099 130.099 0 0 0 243 397a760.962 760.962 0 0 1-3.656-7.281c-.92-1.863-1.86-3.717-2.813-5.563-2.758-5.578-4.289-9.072-2.531-15.156l4-1 .375-2.438L239 363l2-1Z" fill="#F4F1F2"/>
    <path d="M153.063 120.375 155 122v2l2.75.188C161 125 161 125 163.25 127c2.257 3.869 3.024 7.615 3.75 12-5.918 4.208-10.802 4.91-18 4-4.161-1.533-5.54-2.309-8-6v-3l-4-1v-2h-2c-.75-3.25-.75-3.25-1-7 4.507-6.117 12.461-6.589 19.063-3.625Z" fill="#0D0706"/>
    <path d="m256.5 99.813 2.281-.043c2.468.256 4.083 1.002 6.219 2.23.658 5.263.528 8.945-2.688 13.313-3.292 4.058-6.281 7.449-11.644 8.078l-3.48-.141-3.52-.11L241 123c-1.263-3.79-1.733-7.084-1-11 1.65-3.28 3.551-6.26 6-9h2v-2c2.887-.82 5.5-1.162 8.5-1.188Z" fill="#0C0606"/>
    <path d="M138 157v2c-2.664 1.937-5.202 3.668-8.25 4.938-2.486 1.509-2.706 3.382-3.75 6.062l-2.625 4.375c-3.685 7.348-3.823 15.601-1.559 23.457 3.513 7.773 9.67 15.68 17.246 19.793 7.016 2.594 16.266 2.66 23.465.68 2.006-.946 3.684-1.997 5.473-3.305l2.215-1.496c4.41-2.941 4.41-2.941 6.785-7.504h2l.621-1.863L183 194c.94-10.489.405-17.288-6-26l-1-3a206.38 206.38 0 0 0-5-2c-2.813-2-2.813-2-5-4v-2c6.502 2.415 10.995 5.257 15 11l1.426 1.945c3.552 5.743 4.04 11.023 4.074 17.618l.019 2.397c-.123 5.778-1.424 10.67-3.519 16.04h-2l-1 4h-2l-.176 1.805c-1.195 3.182-3.035 3.785-6.012 5.32l-2.855 1.508c-5.691 2.631-10.566 3.727-16.832 3.68l-2.133-.004c-5.32-.099-9.265-.945-13.992-3.309v-2l-2.688-.688C127.272 213.92 123.188 208.55 120 203c-3.705-10.231-3.026-21.951 1-32 3.152-5.901 9.763-14 17-14Z" fill="#897063"/>
    <path d="M249.438 67.5c3.39.662 5.109 2.117 7.562 4.5v2l1.75.25c2.866.955 4.25 2.535 6.25 4.75-2.312 2.312-2.932 2.273-6.063 2.5L255 82l-1 2-1.563-.688c-3.633-.465-6.369.886-9.437 2.688-2.562 2.312-2.562 2.312-5 5a205.43 205.43 0 0 1-3.5 3 97.16 97.16 0 0 0-6.125 5.625c-2.35 2.35-4.666 4.45-7.375 6.375h-3c1.137-3.41 1.831-3.838 4.688-5.813 2.815-2.016 5.292-4.06 7.687-6.562L233 91h2l.75-1.813c1.414-2.475 2.979-3.521 5.25-5.187v-2c-4.79-.234-4.79-.234-9 2a168.693 168.693 0 0 1-6 2l-3 1-1 3-6.055-.098c-2.027-.028-2.027-.028-3.945 1.098-2.672.134-5.323.043-8 0v-1l3.008-.629c14.422-3.197 27.646-8.681 38.082-19.547C247 68 247 68 249.437 67.5Z" fill="#E4BDAA"/>
    <path d="m248 338 10 3-3 1c2.05 7.833 5.102 14.611 8.927 21.723a654.133 654.133 0 0 1 2.948 5.59l1.867 3.488c1.349 3.43 1.479 4.78.258 8.199-2.728 4.143-5.92 6.28-10 9l-1 3c1.975.998 3.95 1.977 5.965 2.895 4.486 2.087 7.827 4.217 11.035 8.105 1.43 4.496 1.62 9.265 2.063 13.938l.27 2.832c.644 7.105.905 14.095.667 21.23h-4l-2-38-4-2a669.576 669.576 0 0 1-6.25-3.625l-3.266-1.914L256 395l-1 6-2-1c-.414-2.285-.414-2.285-.625-5.063l-.227-2.785L252 390h4v-2c1.715-1.691 1.715-1.691 3.938-3.563l2.214-1.878L264 381c1.294-1.082 1.294-1.082 1.266-3.676-.316-3.956-1.504-6.108-3.516-9.512-3.274-5.802-5.69-11.491-7.75-17.812l-.906-2.684A668.45 668.45 0 0 1 251 341h-2l-1-3Z" fill="#45342B"/>
    <path d="m228 267-1 5-5-1 .188 3.125c-.21 4.33-.718 6.325-3.188 9.875-4.982 4.25-9.54 5.654-16 6l-.313-1.938c-.926-4.127-2.304-8.068-3.687-12.062l1.938-1.875c2.1-1.951 2.1-1.951 3.062-4.125 2.371-.309 2.371-.309 5.438-.438 5.217-.33 9.682-1.304 14.601-3.039C226 266 226 266 228 267Z" fill="#C28E80"/>
    <path d="m267 221 .25 1.688c.972 2.996 2.773 4.888 4.75 7.312v2h2c1.871 6.39 2.272 14.095-.5 20.25-3.643 6.197-8.645 11.425-15.5 13.75-2.476.243-2.476.243-5.055.23l-2.863-.005-2.957-.038-2.934-.001c-4.133-.026-8.14-.099-12.222-.784-3.75-.508-4.913.507-7.969 2.598-4.555 1.298-9.12 1.114-13.813 1.063l-2.388-.014c-1.933-.012-3.866-.03-5.799-.049v-2l-12-1v-1l3.078.219C210.64 266.46 210.64 266.46 228 264v-3l-1.652-.48c-5.833-1.805-11.27-4.085-16.348-7.52l-1-2c4.84.475 7.953 1.338 12 4l2.438.938C226 257 226 257 228.938 259c6.11 3.99 11.834 4.416 18.937 4.5l2.605.125c6.8.083 10.675-1.907 15.52-6.625 4.998-5.616 5.675-10.54 5.355-18.004-.622-5.244-2.125-7.91-6.043-11.371L263 226l1-2 2 1 1-4Z" fill="#5B3527"/>
    <path d="M202 225c2.625 2.188 2.625 2.188 4 4v2c-2.473-.877-4.735-1.83-6.95-3.246-5.907-3.744-11.079-5.224-18.05-3.754-4.432 2.216-6.55 4.722-8.188 9.375.233 4.488 1.301 8.117 4.188 11.625 3.632 1.76 6.653 2.275 10.668 2.379l3.205.103 3.315.08c2.18.06 4.362.124 6.542.192l2.92.072C206 248 206 248 208 249v2l-30-1v-2l-2.375-.313C173 247 173 247 171 244h-2a249.325 249.325 0 0 0-4 6c-1.625 1.875-1.625 1.875-3 3h-2v2c-6.435 3.64-11.588 5.641-19 6v-3l2.125-.262c9.623-1.425 15.104-4.124 21.188-11.8 2.818-4.04 4.237-7.367 5.187-12.188 1.105-5.516 3.03-8.047 7.367-11.543 8.686-4.916 17.282-2.076 25.133 2.793Z" fill="#7B4F40"/>
    <path d="m197 345 2 1-.535 2.886c-.661 3.573-1.318 7.146-1.974 10.719l-.852 4.617c-1.465 7.903-2.919 15.764-3.639 23.778l6 2v2l2.125.313c3.266.78 5.922 2.108 8.875 3.687 0 4 0 4-2.313 6.563L204 405l-1.688 1.813C201 408 201 408 199 408l-.875 1.875C197 412 197 412 195 414c.241 4.827 2.118 8.927 3.945 13.328C203 437.6 203 437.6 203 442h-3c-2.374-4.209-3.534-8.023-4.46-12.7-.536-2.282-1.278-4.32-2.165-6.488-1.33-3.47-2.014-6.06-1.375-9.812 1.375-2.598 2.865-4.967 5-7h3l.813-1.688c1.288-2.51 2.716-4.905 4.187-7.312h-3v-2l-2-.25c-4.037-1.01-7.317-2.815-11-4.75v-12h2l.148-2.457c.44-6.51 1.133-12.81 2.45-19.203.515-2.601.515-2.601.402-6.34l-2-1 2-2h3v-2Z" fill="#47362C"/>
    <path d="M253.375 166.438c2.901 2.832 3.038 3.293 3.125 7.125-.14 3.456-.493 4.426-2.5 7.437h-2v2c-2.866 1.433-4.813 1.306-8 1-5.708-3.123-5.708-3.123-7-7-.04-2.333-.044-4.667 0-7h2l1-4c4.895-1.506 8.62-1.588 13.375.438Z" fill="#141414"/>
    <path d="M232 379c2.905 1.002 3.885 1.8 5.438 4.5L239 387c.745 1.482 1.496 2.96 2.25 4.438 2.2 4.42 4.37 8.856 6.5 13.312l.927 1.896c1.788 3.778 2.84 7.203 3.323 11.354h2l6 16 1-6c2.624 5.247 3.095 8.088 3 14h-4c-3-6.625-3-6.625-3-10h-2c-3.86-5.151-6.46-10.698-8.281-16.836-.757-2.278-1.73-4.29-2.844-6.414-1.52-2.902-2.464-5.463-2.875-8.75h-2v-6h-2l-2-5h-2v-5h-1v-5Z" fill="#821523"/>
    <path d="M270.063 90.375 272 92v2l-1.938-.5c-4.049-.661-7.98-1.086-12.062-.5-2.57 1.813-2.57 1.813-4 4 4.125 1.149 7.973 2.096 12.254 2.316 11.283.594 11.283.594 15.367 3.637 3.082 3.87 4.616 7.15 5.379 12.047-4.427-1.476-4.914-3.9-7-8v-2l-3.14-.367-4.11-.508-2.066-.238c-2.815-.356-5.27-.679-7.82-1.961-3.26-1.62-6.751-.901-10.305-.703C250 101 250 101 248.16 99.496L247 98l-2.813 1.438C241 101 241 101 238 102a407.13 407.13 0 0 0-2 4c-1.805 1.668-1.805 1.668-3.875 3.188l-2.055 1.542c-2.054 1.26-3.716 1.832-6.07 2.27v-2a78.644 78.644 0 0 1 4.5-3.688c3.311-2.574 6.52-5.18 9.625-8 8.587-7.552 20.44-14.099 31.938-8.937Z" fill="#6E4D3A"/>
    <path d="M166.808 118.889c7.356 2.256 14.214 2.53 21.88 2.423l3.548.01c6.264-.039 11.773-.468 17.764-2.322v2c-13.414 6.221-29.48 6.046-43.238 1.008-3.328-1.215-6.6-1.825-10.078-2.438-2.684-.57-2.684-.57-5.899-1.578-7.686-2.387-14.57-3.388-22.598-3.43l-2.602-.03c-6.74.09-14.25.823-19.686 5.134L104 121l-3-1c16.246-18.277 46.647-7.177 65.808-1.111Z" fill="#71503F"/>
    <path d="M178 355v1h-5l.805 2.063c2.742 7.525 3.993 14.656 4.8 22.566.277 3.358.277 3.358 1.395 6.371.182 2.227.321 4.457.438 6.688.353 6.045.969 12.015 1.757 18.023a705.505 705.505 0 0 1 1.93 16.476l.265 2.431c.402 3.813.718 7.541.61 11.382h-3l-.148-2.816-.227-3.747c-.07-1.218-.14-2.436-.21-3.69-.294-3.705-.294-3.705-1.399-6.976-1.07-3.972-1.465-7.762-1.692-11.845-.103-1.563-.208-3.125-.313-4.687l-.159-2.443C176.9 391.43 175.43 377.781 171 364l-2 6h-1c-.16-9.416-.16-9.416 1-13 3.435-2.29 4.985-2.178 9-2Z" fill="#514338"/>
    <path d="m161.563 182.188 2.316.23c2.571.706 3.559 1.429 5.121 3.582.905 4.355.44 8.062-1.438 12.063-3.239 2.449-5.366 2.722-9.367 2.484C156 200 156 200 152.938 197.437c-2.21-3.919-2.523-6.01-1.938-10.437 2.915-4.373 5.384-5.417 10.563-4.813Z" fill="#141414"/>
    <path d="M273 344h2l1.313 2.75c1.468 3.183 1.468 3.183 3.437 5.125C281 354 281 354 280.492 357.27c-.896 6.227.128 12.34.883 18.543l.422 3.716c.668 6.328.668 6.328 2.203 12.471.247 1.597.458 3.2.648 4.805l.355 2.928.372 3.142c1.11 9.166 2.325 18.307 3.71 27.435.584 3.933 1.086 7.7.915 11.69h-3c-1.455-5.878-2.151-11.575-2.438-17.625-.296-6.07-1.107-11.836-2.333-17.802-1.455-7.28-2.288-14.626-3.172-21.993-.712-5.913-1.538-11.772-2.588-17.635-.753-4.73-1.261-9.488-1.772-14.25-.336-3.05-.723-5.773-1.697-8.695Z" fill="#483A30"/>
    <path d="M35 186c15.924-.674 15.924-.674 23 3l1 3 2.063.813c4.719 1.907 9.628 4.867 12.175 9.382L74 204c-4.037-1.934-7.768-4.294-11.563-6.66-4.636-2.549-8.973-2.532-14.187-2.528l-2.16-.001c-5.035.05-9.33.603-14.09 2.189l-1-5 2-1a78.037 78.037 0 0 0 2-5Z" fill="#170C0B"/>
    <path d="M239 114h1l1 9h9v1h-10l-.313 2.688C238.97 130.15 237.815 132 236 135c-1.108 2.967-2.07 5.973-3 9l5-1-1.277 1.32-1.66 1.805-1.653 1.758c-4.368 6.558-3.184 18.52-2.41 26.117 1.506 7.42 4.538 14.3 8 21h-2l1 3h-2l-3-10h-2c-2.763-9.075-3.52-17.542-3.5-27l-.086-3.867c-.022-10.982 3.186-18.755 8.336-28.258 2.528-4.881 3.122-9.424 3.25-14.875Z" fill="#84624F"/>
    <path d="M316 132c3.543 2.282 5.371 5.154 7 9 .851 6.298.405 12.68 0 19h-3l-.297-2.344c-.958-6.673-2.332-11.812-5.703-17.656h-10l-.75 2.625c-1.324 3.574-3.08 6.256-5.25 9.375a85.912 85.912 0 0 0-2 4c-1.282-2.961-.957-4.126.117-7.242.566-1.22 1.153-2.432 1.758-3.633l.95-1.891c3.56-6.6 9.106-12.347 17.175-11.234Z" fill="#2A1915"/>
    <path d="M218 341h9v3h2v2l1.875.375C233 347 233 347 235 349l-.5 1.938L234 353l2 3c-.243 4.487-2.309 7.493-5 11-2 0-2 0-3.375-1.313L226 364l-2.188-1.313C222 361 222 361 221.625 358.125c.368-3.067 1.157-5.309 2.375-8.125v-3c.31-1.671.64-3.339 1-5h-7v-1Z" fill="#9E0212"/>
    <path d="M241 316h1v19l6 2-3 1v12l-3-2c-.293-2.82-.293-2.82-.188-6.125l.083-3.32L242 336l-2.375 1.5C237 339 237 339 235 339v2l-2.875.375c-3.212.342-3.212.342-5.125 2.625v-3l-2 1v2.375c0 4.642-.322 8.746-3.563 12.375L220 358l-1 2h-2c1.654-6.227 3.558-11.54 7-17l-2.484.035-3.266.027-3.234.036c-2.55-.083-4.595-.352-7.016-1.098v8c-1.11-2.073-1.974-3.886-2.5-6.188L205 342l-2-1 2.25-.438c1.57-.32 3.138-.67 4.683-1.1 2.702-.604 5.305-.439 8.059-.347 7.456.238 12.607.11 19.008-4.115l3-1-.035-3.684-.028-4.753-.025-2.432c-.009-2.044.036-4.088.088-6.131l1-1Z" fill="#5C4C45"/>
    <path d="M210 360h1v6l3 1 .138 1.753c.483 6.101.97 12.202 1.461 18.303.182 2.267.362 4.535.541 6.802.924 11.687 1.868 23.338 3.485 34.953.518 4.408.567 8.759.375 13.189h-3c-1.702-14.073-2.779-28.145-3.677-42.29a2485.01 2485.01 0 0 0-.542-8.179l-.148-2.456c-.347-5.068-1.11-9.91-2.204-14.87-.577-2.967-.624-5.815-.554-8.83l.055-3.102L210 360Z" fill="#514743"/>
    <path d="M209 343h15c-1.983 7.93-5.936 14.955-10 22h-2c-.507-2.54-1.006-5.082-1.5-7.625l-.434-2.16-.41-2.13-.38-1.935c-.346-2.696-.276-5.432-.276-8.15Z" fill="#FAF6F8"/>
    <path d="M235 350c3.825 1.451 5.19 3.382 7 7v2l-1.316 1.305c-2.712 2.73-4.26 6.154-6.086 9.515C233 372 233 372 230.98 372.918c-1.98.082-1.98.082-4.73-1.73L224 369v-2l-3-1c-2.188-1.938-2.188-1.938-4-4v-2h2l2-5h1l.688 3.313c1.491 4.19 2.476 4.77 6.312 6.687v2c2.335-2.257 4.187-4.28 6-7-.355-2.841-1.093-5.28-2-8h2v-2Z" fill="#8B0719"/>
    <path d="M166 157c6.502 2.415 10.995 5.257 15 11l1.426 1.945c3.552 5.743 4.04 11.023 4.074 17.618l.019 2.397c-.123 5.778-1.424 10.67-3.519 16.04h-2l-1 4h-2l-.188 1.875C177 214 177 214 174.688 215.313c-2.827.723-3.97.492-6.687-.313l1.715-1.207 2.222-1.606 2.215-1.582c2.117-1.564 2.117-1.564 2.848-4.605h2l.621-1.863L183 194c.94-10.489.405-17.288-6-26l-1-3a206.38 206.38 0 0 0-5-2c-2.813-2-2.813-2-5-4v-2Z" fill="#8E7972"/>
    <path d="M165 265c2.75-.027 5.5-.047 8.25-.063l2.355-.025 2.286-.01 2.094-.016c2.115.12 3.981.538 6.015 1.114v2l1.813.313c2.5.785 3.562 1.656 5.187 3.687v2c-10.668.548-18.954-1.297-28-7v-2Z" fill="#B96B79"/>
    <path d="M146 104c12.795 3.21 24.875 3.698 38 3v2c-11.51 5.755-32.199.782-44-3l-2-1a169.189 169.189 0 0 0-7.875-.188l-2.184-.037c-3.886-.01-6.59.253-9.941 2.225h-3v-2a305.65 305.65 0 0 1 5-2l2.813-1.125c8.226-2.258 15.177.003 23.187 2.125Z" fill="#684734"/>
    <path d="m267 221 .25 1.688c.972 2.996 2.773 4.888 4.75 7.312v2h2c1.871 6.39 2.272 14.095-.5 20.25-3.334 5.632-7.794 10.424-13.688 13.313-5.668.65-11.158.066-16.812-.563v-1l3-.008c10.006-.195 10.006-.195 18.414-5.21L266 257l1.586-1.719c4.464-5.82 4.25-12.23 3.414-19.281-1.608-4.824-3.869-7.097-8-10l1-2 2 1 1-4Z" fill="#7C5B47"/>
    <path d="M251 205c7.223-.49 7.223-.49 10.875 1.813 2.932 3.018 4.088 4.476 4.313 8.75C266 219 266 219 265 221c-5.922-.877-10.155-5.727-14-10-.875-2.188-.875-2.188-1-4l1-2Z" fill="#DBB5A1"/>
    <path d="m242 336 1 20-4-2v-2l-1.813-.813c-2.174-1.18-3.455-2.455-5.187-4.187l-3-1c-.75-2-.75-2-1-4 1-1 1-1 4.063-1.063L235 341v-2c4.385-3 4.385-3 7-3Z" fill="#F5EFF0"/>
    <path d="m134 125 1 6h2l1 2 3 1c.688 2.063.688 2.063 1 4-2.622-1.049-3.794-1.65-5.25-4.125L136 132h-2l-1-5c-7.191 1.025-13.963 2.797-20 7-1.296 2.057-1.296 2.057-2 4h-2l-1 5h-2v8h-4v-5h2l.188-3.063c.922-5.879 3.804-9.382 8.39-12.933C119.81 125.3 125.453 124.045 134 125Z" fill="#7A5744"/>
    <path d="M69 213c6.605-.472 10.315.762 16 4l3.188 1.438c3.193 1.774 5.346 3.885 7.812 6.562l1 1c.125 2.5.125 2.5 0 5-1 1-1 1-3.066 1.098l-2.496-.036-2.504-.027L87 232l-.191-2.012c-.667-5.195-.667-5.195-3.184-9.66C79.26 217.054 74.209 215.453 69 214v-1Z" fill="#1E130E"/>
    <path d="M288 101c2.438.375 2.438.375 5 1 1.478 2.957 1.06 5.742 1 9h-2l.105 1.828c.164 4.835.226 7.441-3.105 11.172-.714 2.65-.714 2.65-1 5l4-1-2 6h-2l-.375 2.188c-.615 2.77-1.51 5.209-2.625 7.812h-1c.263-9.873 1.403-18.782 4.16-28.281 1.152-5.1 1.521-9.675-.16-14.719Z" fill="#37241A"/>
    <path d="M307 158c-.389 2.819-.708 3.772-3 5.563L302 165l-1 3h-2l-1 20c-1.777-2.666-2.875-5.028-4-8l-1 6h-3l2 6c-4.226-2.818-4.81-6.204-6-11-.188-3.063-.188-3.063 0-5l1.375 1.875c1.596 2.184 1.596 2.184 3.625 4.125l.55-2.23c2.633-10.218 2.633-10.218 5.45-13.77h2l.25-1.75c1.356-4.069 3.43-6.25 7.75-6.25Z" fill="#51392F"/>
    <path d="M334 136c4.327 4.857 3.477 9.984 3.438 16.188l.06 3.33c-.004 7.052-1.01 12.321-4.498 18.482h-2l.188 2.25c-.222 3.242-.91 4.472-3.188 6.75h-3v3h-3c1.003-2.12 2.049-4.072 3.367-6.016C334.48 166.48 334.58 151.717 334 136Z" fill="#281913"/>
    <path d="m258 93-4 4c4.125 1.149 7.973 2.096 12.254 2.316 11.283.594 11.283.594 15.367 3.637 3.082 3.87 4.616 7.15 5.379 12.047-4.427-1.476-4.914-3.9-7-8v-2l-3.14-.367-4.11-.508-2.066-.238c-2.815-.356-5.27-.679-7.82-1.961-3.26-1.62-6.751-.901-10.305-.703C250 101 250 101 248.285 99.559L247 98l-2-1c9.579-5.71 9.579-5.71 13-4Z" fill="#BD9C8B"/>
    <path d="M284 132c1.04 3.38 1.08 6.478 1 10l2-3-.465 2.723c-.791 5.541-.895 11.127-1.098 16.714l-.13 3.374c-.106 2.73-.208 5.46-.307 8.189h-3l-.516-2.414c-1.386-6.063-2.711-10.643-6.484-15.586v-2h-2l-2-5c3.983 2.102 6.456 4.274 9 8a68.913 68.913 0 0 1 1 4l2 1-.016-2.28c-.02-3.385-.034-6.771-.046-10.157l-.026-3.588-.01-3.409-.016-3.158C283 133 283 133 284 132Z" fill="#7F6F68"/>
    <path d="M232 379c2.905 1.002 3.885 1.8 5.438 4.5L239 387c.745 1.482 1.496 2.96 2.25 4.438A679.825 679.825 0 0 1 247.813 405l.952 1.998C251 411.767 251 411.767 251 414h-2v-3h-2l-1-4-2 1c-2.624-3.061-3-3.732-3-8h-2v-6h-2l-2-5h-2v-5h-1v-5Z" fill="#832031"/>
    <path d="M214 368h1l.402 2.773.536 3.602.527 3.586c.37 2.946.37 2.946 1.535 5.039.13 1.808.203 3.621.246 5.434l.096 3.378.095 3.625c.28 9.138.814 18.145 1.898 27.22.75 6.475.876 12.823.665 19.343h-1c-5.836-51.18-5.836-51.18-6-74Z" fill="#C2BFBD"/>
    <path d="m147.25 107.207 2.75.606c8.6 1.641 17.27 1.84 26 2.187v1l-19 1-1 3 3 2c-5.268-.658-10.301-1.733-15.438-3.063l-2.216-.564c-1.783-.454-3.565-.913-5.346-1.373v-1l2.813-.875c8.302-2.93 8.302-2.93 8.437-2.918Z" fill="#D3AF9B"/>
    <path d="m173 259 3 2-2.047-.07-2.703-.055-2.672-.07c-2.692.204-4.277.83-6.578 2.195v4h2v-3h8v1h-7c6.357 7.417 16.781 8.135 25.875 8.852L193 274l-1-3 3 1v2h5c-2.543 2.543-4.239 2.283-7.713 2.33l-2.287-.017-2.334-.015c-9.874-.203-17.288-3.178-25.666-8.298v2h-2c.481-7.336.481-7.336 2.563-10 3.678-1.509 6.46-1.316 10.437-1Z" fill="#6A3233"/>
    <path d="M93 134c5.002 9.647 5.153 18.659 5.098 29.379l-.005 3.19c-.005 3.331-.018 6.662-.03 9.994-.006 2.271-.01 4.542-.014 6.814-.011 5.541-.028 11.082-.049 16.623-2.058-3.087-2.253-3.77-2.287-7.265l-.04-2.602-.017-2.813-.044-2.92c-.047-3.092-.08-6.183-.112-9.275-.026-16.886-.026-16.886-2.08-33.606-.426-2.554-.492-4.935-.42-7.519Z" fill="#C1A393"/>
    <path d="M25 94c1.044 3.133.934 3.99 0 7h-3l.125 2.688c-.152 4.028-1.35 6.762-3.125 10.312-.266 3.452-.232 6.914-.25 10.375l-.063 2.906-.015 2.805-.028 2.564c.432 2.85 1.538 4.16 3.356 6.35.904 3.597 1 7.298 1 11-2-1-2-1-3.035-3.906-.34-1.186-.678-2.372-1.027-3.594-.882-4.058-.882-4.058-2.938-7.5a55.389 55.389 0 0 1-.133-4.008l-.004-2.492.012-2.625-.012-2.555c.011-6.926.2-13.203 3.512-19.445l1.348-2.563C22.09 98.838 23.486 96.39 25 94Z" fill="#394241"/>
    <path d="M223 272h2c-.029 6.385-1.174 10.068-5.527 14.785C218 288 218 288 216 288l-1 3c-9.624 2.25-18.836 3.708-28-1l-2-3c1.792.309 3.584.622 5.375.938l3.023.527C196 289 196 289 198 290c6.314.644 10.527-1.192 16-4l2.875-1.375c4.117-3.149 5.393-7.65 6.125-12.625Z" fill="#6C3F33"/>
    <path d="M250 78h11v2l-1.836-.027C249.084 80.329 242.726 85.89 236 93l-5 4-2.5 2.5c-2.394 2.394-4.74 4.539-7.5 6.5h-3c1.137-3.41 1.831-3.838 4.688-5.813 2.815-2.016 5.292-4.06 7.687-6.562L233 91h2l.762-1.8c2.549-4.528 7.322-7.641 12.238-9.075l2-.125v-2Z" fill="#825F4A"/>
    <path d="m200 404 2 3-3 1c-1.092 1.933-1.092 1.933-2 4l-2 2c.241 4.827 2.118 8.927 3.945 13.328C203 437.6 203 437.6 203 442h-3c-2.374-4.209-3.534-8.023-4.46-12.7-.536-2.282-1.278-4.32-2.165-6.488-1.33-3.47-2.014-6.06-1.375-9.812 1.375-2.598 2.865-4.967 5-7h3v-2Z" fill="#49392F"/>
    <path d="M228 146h1l.104 2.332c.825 17.103 2.034 31.311 9.896 46.668h-2l1 3h-2l-3-10h-2c-2.927-9.33-3.374-18.03-3.188-27.75.016-1.39.03-2.781.042-4.172.035-3.36.084-6.719.146-10.078Z" fill="#89766E"/>
    <path d="M249.313 98.375 251 100l-3 1v2l-2.313 2.25c-4.327 4.428-5.961 8.652-6.687 14.75h-1v-11h-2v-2l-2-1c10.987-10.197 10.987-10.197 15.313-7.625Z" fill="#D3B29F"/>
    <path d="M237 91c0 3 0 3-1 5l5 1c-3.494 3.596-7.111 6.835-11 10l-2-2-4 2-3-2 1.61-1.137c4.113-2.98 7.305-5.786 10.39-9.863 2.25-1.813 2.25-1.813 4-3Z" fill="#D8B49F"/>
    <path d="M170 236c3 1 3 1 3.992 2.777.587 1.436 1.17 2.874 1.75 4.313 1.722 2.615 3.304 2.947 6.258 3.91 2.765.345 2.765.345 5.668.379l3.205.103 3.315.08c2.18.06 4.362.124 6.542.192l2.92.072C206 248 206 248 208 249v2l-30-1v-2l-2.438-.438C173 247 173 247 172 246a99.984 99.984 0 0 1 0-5h-2v-5Z" fill="#553123"/>
    <path d="M238 76c2 1 2 1 3 3l3-3 2 2c1.317.697 2.65 1.37 4 2l-8 3-1-1c-4.032-.263-5.559-.294-9 2a168.693 168.693 0 0 1-6 2l-3 1-1 3-6.055-.098c-2.027-.028-2.027-.028-3.945 1.098-2.672.134-5.323.043-8 0v-1l3.008-.629C218.25 86.875 228.858 83.301 238 76Z" fill="#B49788"/>
    <path d="M275 408h1c1.21 11.353 2.382 22.568 2 34h-4c-.192-4.36-.371-8.72-.537-13.08a869.16 869.16 0 0 0-.187-4.45 844.224 844.224 0 0 1-.253-6.396l-.158-3.888C273 411 273 411 275 408Z" fill="#46382E"/>
    <path d="M179 395h1c1.691 8.217 2.66 16.454 3.433 24.8.194 2.093.395 4.186.598 6.278 1.055 11.085 1.055 11.085.969 15.922h-3l-.184-2.922-.254-3.828c-.08-1.253-.162-2.506-.246-3.797-.19-3.206-.19-3.206-.816-5.248-.678-2.989-.722-5.877-.816-8.94l-.127-3.925-.12-4.09-.13-4.137c-.106-3.37-.208-6.742-.307-10.113Z" fill="#433429"/>
    <path d="M187.688 219.625c6.436.073 12.109 3.539 16.937 7.563C206 229 206 229 206 231c-2.473-.877-4.735-1.83-6.95-3.246-5.114-3.241-9.29-4.635-15.386-4.395-4.65 1.119-7.554 4.147-10.664 7.641 0-3 0-3 1-6 4.514-4.263 7.693-4.765 13.688-5.375Z" fill="#694734"/>
    <path d="M284 96c4.127 3.852 5.869 6.033 6.25 11.75-.097 4.298-1.072 8.127-2.25 12.25l-4-4 1-2 2 1a393.378 393.378 0 0 0-1.813-3.813l-1.019-2.144c-1.082-2.1-1.082-2.1-2.805-3.68L280 104v-2h2l1-2 2 1-1-5Z" fill="#C8A695"/>
    <path d="m197 345 2 1-7 38h-1c-.439-11.5 1.368-22.648 3-34l-2-1 2-2h3v-2Z" fill="#3F3229"/>
    <path d="m48 187 3.813.375 2.144.21C56 188 56 188 59 190v2l2 .625c5.484 2.514 10.595 5.676 13 11.375-4.037-1.934-7.768-4.294-11.563-6.66-4.665-2.565-9.453-2.62-14.687-2.903l-2.258-.13c-1.83-.106-3.661-.207-5.492-.307v-1l14-1v-2l-6-2v-1Z" fill="#48322A"/>
    <path d="m180 294 1 2h-4v2h3v4h-2v-2l-4-1v-2l-2.438-.25c-4.521-.952-8.409-2.766-12.562-4.75 7.278-3.64 14.088-1.438 21 2Z" fill="#D7B3A2"/>
    <path d="M131 213c1.973.969 3.908 1.945 5.797 3.07 7.86 4.245 17.887 4.502 26.387 1.989a76.676 76.676 0 0 0 4.996-2.282L170 215l2 1c-1.246.82-2.497 1.63-3.75 2.438l-2.11 1.37c-6.743 3.754-17.622 3.265-24.968 1.52C139 220.5 139 220.5 136 219v-2l-5-2v-2Z" fill="#564137"/>
    <path d="M253 400h1l.586 3.219c1.566 8.785 1.566 8.785 3.601 17.469.72 2.936 1 5.31.813 8.312-3.81-2.77-4.068-6.629-5-11h-2l-2-8 3 1v-11Z" fill="#CCBFC1"/>
    <path d="m208 342 4 1h-3l.656 3.29.844 4.335.434 2.16c.796 4.136 1.226 7.98 1.066 12.215l1.375-1.375L217 360v2l4 2-1.813.313c-2.47.776-3.51 1.758-5.187 3.687l-5-2-1-13h-2l-1-8 2 1 1-4Z" fill="#6C645E"/>
    <path d="M260.316 91.273c6.107.277 6.107.277 9.247 2.727L271 96c-2 2-2 2-5.695 2.195a329.638 329.638 0 0 1-4.43-.07l-2.285-.027c-1.864-.024-3.727-.06-5.59-.098 4.331-5.79 4.331-5.79 7.316-6.727Z" fill="#E7BEAB"/>
    <path d="M284 200c3.735.498 5.812.875 9 3 .25 3.063.25 3.063 0 6-1 1-1 1-3.25 1.25-3.27-.297-5.07-1.412-7.75-3.25l2-7Z" fill="#765D4E"/>
    <path d="M136 111v3l-3.586.113c-14.033.052-14.033.052-26.484 5.551L104 121l-3-1c9.23-10.383 22.374-9.72 35-9Z" fill="#9D7863"/>
    <path d="M167 136c6.107 3.112 11.31 5.909 16 11l3.125 2.063c2.7 1.82 4.253 3.144 5.875 5.937v3c-3.253-1.411-5.23-3.093-7.625-5.688-4.35-4.48-9.173-7.893-14.375-11.312l-3-2v-3Z" fill="#7C5A47"/>
    <path d="m234 388 2 1-.467 1.586c-2.49 11.281-1.793 23.83-2.095 35.351l-.131 4.71c-.106 3.784-.207 7.568-.307 11.353h-1a5612.25 5612.25 0 0 1-.11-21.143c-.01-2.397-.024-4.795-.04-7.193-.025-3.445-.036-6.89-.045-10.336l-.032-3.252v-3.032l-.014-2.665c.258-2.551.955-4.18 2.241-6.379Z" fill="#8D0415"/>
    <path d="m270 274 2 1-1.207 1.32c-2.637 2.965-4.673 5.42-6.356 9.055C263 288 263 288 260.313 288.875L258 289v2h-2l-.188 2.375L255 296c-2.563 1.313-2.563 1.313-5 2 1.125-2.972 2.223-5.334 4-8h2v-2h2l.75-1.875c1.487-2.529 2.687-2.843 5.25-4.125a89.261 89.261 0 0 0 2-4 89.782 89.782 0 0 1 4-4Z" fill="#4D3831"/>
    <path d="m293 266 2 1-33 33c0-4.316 2.133-5.928 5-9h2l1-3h2l1-3c1.45-1.252 2.906-2.5 4.402-3.695 2.373-1.938 4.457-4.114 6.598-6.305 1.603-1.606 3.207-3.21 4.813-4.813l2.394-2.394L293 266Z" fill="#CDCDCF"/>
    <path d="m228 262 1 3c-6.206 4.078-11.612 4.141-18.813 4.063l-2.388-.014c-1.933-.012-3.866-.03-5.799-.049v-2l-12-1v-1l3.078.219C210.64 266.46 210.64 266.46 228 264v-2Z" fill="#71433B"/>
    <path d="M10 178c1.457 2.914.689 4.87 0 8l-1.063 1.875C6.447 193.523 7.992 201.332 10 207l2 1c1.963 3.719 2.15 5.972 1 10-5.954-4.627-6.99-16.605-8-23.813-.39-5.657 1.372-10.236 4-15.187l1-1Z" fill="#372F28"/>
    <path d="m265 197 2 1-1.875.813C262.7 199.956 262.7 199.956 261 203c-2.46.477-2.46.477-5.375.625-3.968.204-3.968.204-7.836 1.012L246 205c-2.25-1.813-2.25-1.813-4-4v-2l1.68.032c2.524.041 5.047.067 7.57.093.873.017 1.745.034 2.645.05l2.558.02 2.349.032c2.454-.253 4.015-1.13 6.198-2.227Z" fill="#D5B6A7"/>
    <path d="m126 105-5 1v3l13 1v1l-3.473.148-4.59.227c-.752.03-1.504.062-2.279.094-4.848.252-9.041 1.023-13.658 2.531l-1-2 2-1 .438-2 .562-2c3-1 3-1 5.563-1.5 6-1.231 6-1.231 8.437-.5Z" fill="#D4AE9B"/>
    <path d="M203 278h9l1 5c-3.089 2.06-3.71 2.239-7.188 2.125L202 285l-1-5h2v-2Z" fill="#E5C1B3"/>
    <path d="m273 189 3 1c-.99.928-1.993 1.842-3 2.75l-1.688 1.547c-6.863 5.055-12.335 6.273-20.812 5.953l-2.781-.055c-2.241-.046-4.48-.112-6.719-.195l-1-4 3.5 1c9.298 2.251 16.216.643 24.434-4.121 1.798-1.178 3.541-2.354 5.066-3.879Z" fill="#806D63"/>
    <path d="M157.988 180.77c4.118.076 7.998.194 12.012 1.23v2h2c1.208 3.623 1.4 6.196 1 10-2.5 2.438-2.5 2.438-5 4l-2-1 2-2c.55-3.056.543-5.943 0-9-2.72-2.64-4.37-2.962-8.125-3.188L157 183h-3c2-2 2-2 3.988-2.23Z" fill="#B6B6B6"/>
    <path d="M178 355v1h-5l.691 2.922.871 3.828.88 3.797c.492 3.048.635 4.63-.442 7.453v-2h-2l-2-8-2 6h-1c-.16-9.416-.16-9.416 1-13 3.435-2.29 4.985-2.178 9-2Z" fill="#4E4038"/>
    <path d="m304 191 2 1-1.5 1.375c-1.726 1.501-1.726 1.501-1.5 3.625l6 1c-2.068 2.797-3.144 3.027-6.688 3.688L299 202c-4-5.75-4-5.75-4-8h6v-2l3-1Z" fill="#CCAC9C"/>
    <path d="M294 177h1l.84 2.738 1.098 3.575 1.09 3.55A306.013 306.013 0 0 0 300 193c-3.313.25-3.313.25-7 0-1.938-1.813-1.938-1.813-3-4v-3h3l1-9Z" fill="#160A06"/>
    <path d="M183 194c1.532 4.084.63 7.795 0 12h-2l-1 4h-2l-.188 1.875C177 214 177 214 174.688 215.313c-2.827.723-3.97.492-6.687-.313l1.715-1.207 2.222-1.606 2.215-1.582c2.117-1.564 2.117-1.564 2.848-4.605h2l.621-1.863L183 194Z" fill="#8E7A72"/>
    <path d="M209 343h15l-1 3v-2h-11l.473 2.45.59 3.238.597 3.199c.33 3.025.115 5.193-.66 8.113l3 1-2 3h-2c-.507-2.54-1.006-5.082-1.5-7.625l-.434-2.16-.41-2.13-.38-1.935c-.346-2.696-.276-5.432-.276-8.15Z" fill="#DBD6D5"/>
    <path d="m64 228 1.844.402c6.6 1.33 13.045 1.944 19.76 2.168 3.64.158 5.286.357 8.396 2.43-6.968 3.484-17.117.591-24.285-1.05-2.708-.948-3.934-1.75-5.715-3.95Z" fill="#694837"/>
    <path d="m236 381 2 1 1 3 3 2c.188 3.125.188 3.125 0 6l5 1c.533 1.913 1.05 3.83 1.563 5.75l.878 3.234c.53 2.86.543 4.332-.441 7.016-.628-1.228-1.252-2.457-1.875-3.688l-1.055-2.074a75.108 75.108 0 0 1-2.047-4.699c-1.04-2.581-2.243-5.006-3.523-7.476-1.835-3.622-3.367-7.15-4.5-11.063Z" fill="#EBD6DB"/>
    <path d="M244 352h2l.621 2.773.816 3.602.81 3.586c.61 2.934.61 2.934 1.753 5.039.07 1.874.084 3.75.063 5.625l-.028 3.04L250 378h-2c-4.766-17.149-4.766-17.149-4-26Z" fill="#5A4F4B"/>
    <path d="M307 158c-.389 2.819-.708 3.772-3 5.563L302 165l-1 3h-2l-1 20h-1l-1-16-2 1c1.875-4.75 1.875-4.75 3-7h2l.25-1.75c1.356-4.069 3.43-6.25 7.75-6.25Z" fill="#856757"/>
    <path d="m268 142 2 1v2l-12-4c-6.594-.512-12.64.28-19 2l1-3c9.863-3.47 18.843-3.011 28 2Z" fill="#715D51"/>
    <path d="M262 101c15.015-1.368 15.015-1.368 19.652 1.828 3.055 3.9 4.582 7.273 5.348 12.172-4.427-1.476-4.914-3.9-7-8v-2l-3.176-.367a7054.61 7054.61 0 0 1-4.137-.508l-2.091-.238c-3.552-.446-5.566-.867-8.596-2.887Z" fill="#775645"/>
    <path d="M241 316h1v19l6 2-3 1v12c-3-2-3-2-3.512-4.117-.635-9.96-.577-19.908-.488-29.883Z" fill="#4F3E38"/>
    <path d="M236 353c2.622 1.049 3.794 1.65 5.25 4.125L242 359l-1.313 1.176c-2.662 2.878-4.307 6.32-6.187 9.742L233 372h-3l-1-3 1.813-.625c3.149-1.98 3.902-3.906 5.187-7.375.23-2.724.142-5.257 0-8Z" fill="#67101E"/>
    <path d="m68 252 4 1h-2v2l2.688-.5c3.704-.518 7.386-.667 11.124-.75l3.395-.078L90 254l2 3c-9.573.219-18.577-.001-28-2l4-1v-2Z" fill="#3A3430"/>
    <path d="M232 372c1.414 2.639 2.372 5.071 3 8l-3-1 2 3a84.077 84.077 0 0 1-.75 8.063l-.266 2.22c-.72 5.454-.72 5.454-2.984 7.717-.122-9.013-.157-18.044 1-27l1-1Z" fill="#712635"/>
    <path d="M232 379c3.18 1.097 3.956 1.92 5.625 4.938L239 387l2 3c-.375 3.188-.375 3.188-1 6l-1-2h-2l-2-5h-2v-5h-1v-5Z" fill="#83182A"/>
    <path d="m183 318 4 1v2h2v2h2c1.283 3.85 1.066 6.947 1 11h2v4h-2l-1 3-4-1 3-2c.62-5.453.62-5.453-1.5-10.25L187 326v-4h-2l-2-4Z" fill="#3F4042"/>
    <path d="m235 146 1 2h-2l.125 2.125C234 153 234 153 233 155.75c-2.02 6.565-1.08 12.548.555 19.098.643 3.11.58 5.986.445 9.152h-1c-2.67-6.328-3.301-12.338-3.313-19.125l-.015-2.277c.063-5.15.722-9.69 2.328-14.598l3-2Z" fill="#CABFBA"/>
    <path d="m256 426 4 8 1-6c2.624 5.247 3.095 8.088 3 14h-4c-4.592-10.374-4.592-10.374-4-16Z" fill="#5A1018"/>
    <path d="M159 358h1c.105 5.765-.267 11.285-1 17-.095.775-.19 1.55-.29 2.348-.232 1.884-.47 3.768-.71 5.652h-2l-1 9h-1c-.262-6.979.74-13.51 1.938-20.375l.552-3.309c1.37-8.035 1.37-8.035 2.51-10.316Z" fill="#575759"/>
    <path d="m305 136 1 2h6v1l-8 1-.75 2.625c-1.324 3.574-3.08 6.256-5.25 9.375a85.912 85.912 0 0 0-2 4c-.703-1.555-.703-1.555-1-4a69.331 69.331 0 0 1 3.25-7.125l.95-1.918c1.662-3.25 2.707-4.895 5.8-6.957Z" fill="#896552"/>
    <path d="M109 133c2 2 2 2 2 5h-2l-1 5h-2v8h-4v-5h2l.25-3.125c.853-4.405 2.092-6.36 4.75-9.875Z" fill="#9D7860"/>
    <path d="M325 118v2l-2.813-1.063c-3.167-1.26-3.167-1.26-6.187.063-1.52.068-3.042.085-4.563.063l-2.378-.028L307 119c-2.428 0-4.63.5-7 1 6.67-7.385 16.686-6.338 25-2Z" fill="#9A8174"/>
    <path d="M185 287c1.792.309 3.584.622 5.375.938l3.023.527C196 289 196 289 198 290c2.207.07 4.417.084 6.625.063l3.602-.028L211 290l-1 2c-7.467 2.334-16.06 1.565-23-2l-2-3Z" fill="#613225"/>
    <path d="M284 132c1.04 3.38 1.08 6.478 1 10l2-3-.465 2.848c-.692 4.845-.883 9.704-1.098 14.59l-.13 2.794c-.106 2.256-.208 4.512-.307 6.768h-1c-.953-7.197-1.151-14.245-1.125-21.5l-.012-3.32.004-3.149.004-2.857C283 133 283 133 284 132Z" fill="#8C6F5D"/>
    <path d="M270.063 90.375 272 92v2l-1.918-.496c-4.15-.679-8.198-.61-12.394-.567l-2.534.014c-2.051.012-4.103.03-6.154.049l1-2c6.628-2.13 13.52-3.563 20.063-.625Z" fill="#775744"/>
    <path d="M288 101c2.438.375 2.438.375 5 1 1.478 2.957 1.06 5.742 1 9h-2v9l-2 1-.184-3.613-.253-4.7-.12-2.38-.127-2.295-.11-2.11c-.162-2.124-.162-2.124-1.206-4.902Z" fill="#140A09"/>
    <path d="m121 196 .816 1.719c1.236 2.38 2.624 4.556 4.121 6.781l1.528 2.281A169.012 169.012 0 0 0 132 213l-2 2c-7.818-7.37-7.818-7.37-10-12 .188-3.938.188-3.938 1-7Z" fill="#8E786C"/>
    <path d="M318 148h1l1 12h2c-.467 5.414-1.243 9.205-4 14h-1l1-26Z" fill="#593E32"/>
    <path d="M141 115c1.752.257 3.502.531 5.25.813l2.953.457c2.946.769 4.594 1.648 6.797 3.73v2l5 2c-2 1-2 1-3.938.75-2.352-.855-3.389-1.925-5.062-3.75-2.645-1.322-4.678-1.097-7.625-1.063l-3.04.028L139 120l2-5Z" fill="#A58F84"/>
    <path d="m249 206 2 1 .375 1.875c.823 2.799 2.3 3.475 4.625 5.125v2l1.688.75c2.712 1.466 4.948 3.28 7.312 5.25-1.688.75-1.688.75-4 1-3.787-2.524-6.792-5.792-10-9l-2.813-2.188L246 210v-2l3-2Z" fill="#815D4C"/>
    <path d="m34 188-1 4h-2l1 5 4-1-1 2h-3v6l-3-1c-1.202-3.606-1.327-6.21-1-10 3.191-5 3.191-5 6-5Z" fill="#4C342B"/>
    <path d="M228 146h1l2 32h-2c-1.461-2.922-1.111-5.499-1.098-8.758l.005-2.01c.005-2.118.018-4.238.03-6.357A3916.611 3916.611 0 0 1 228 146Z" fill="#8D7569"/>
    <path d="M156 383h2c.331 6.178-.616 10.35-3 16a491.572 491.572 0 0 0-2 6h-2l2-13h2l1-9Z" fill="#2D2D2F"/>
    <path d="M69 213c6.6-.471 10.322.757 16 4l3.438 1.625C91 220 91 220 92 222l-6-2-1 2-2.938-2.313C78.005 216.76 73.785 215.335 69 214v-1Z" fill="#624637"/>
    <path d="M251 205h8v3h-3l.438 1.75L258 216c-2 0-2 0-4.563-2.25-3.222-3.636-3.222-3.636-3.437-6.75l1-2Z" fill="#D2AE9D"/>
    <path d="M121 178h1l1 21h2l2 5h-3c-4.66-7.675-4.658-15.267-4-24l1-2Z" fill="#D6CAC6"/>
    <path d="M139 102c-3.61 2.407-5.642 2.32-9.938 2.5-4.305.181-7.3.413-11.062 2.5h-3v-2c8.465-3.485 14.91-5.273 24-3Z" fill="#7A5945"/>
    <path d="m259 74 6 4c-2 3-2 3-3.91 3.441l-2.152.121L255 82l-1 2-6-1c1.774-2.246 2.584-2.95 5.48-3.293l2.708.106 2.73.082L261 80v-2h-11v-1h9v-3Z" fill="#C3A191"/>
    <path d="M287 424h1c.338 2.062.67 4.124 1 6.188l.563 3.48c.372 2.836.523 5.48.437 8.332h-3c-.34-1.561-.671-3.124-1-4.688l-.563-2.636c-.738-4.517-1.035-6.78 1.563-10.676Z" fill="#4F4137"/>
    <path d="m283 362 1 3 3 1c.844 2.512.844 2.512 1.5 5.688 1.015 4.534 2.38 8.172 4.5 12.312.188 2.875.188 2.875 0 5-3.825-1.913-4.65-7.144-6-11-1.604-5.283-2.958-10.578-4-16Z" fill="#4A3D38"/>
    <path d="M136 103c5.636-.24 10.486.617 15.938 2l2.36.578c1.903.467 3.803.943 5.702 1.422-5.004 2.855-9.328 1.672-14.672.328-6.976-1.976-6.976-1.976-9.328-4.328Z" fill="#735240"/>
    <path d="m50 62 1 2a400.725 400.725 0 0 1-3 6l-.5 2.688c-.596 2.756-1.547 3.36-3.5 5.312-1.2 3.1-1.2 3.1-2 6l-5 1 1-2h2l1.125-3.813C43.005 73.504 45.702 66.299 50 62Z" fill="#372E29"/>
    <path d="M243 353h2v11l-6-1-1 5h-2c1.059-3.403 2.009-6.014 4-9h2l-3-5 3 1 1-2Z" fill="#928383"/>
    <path d="m116 273 10 1v2l3.313.75c3.746 1.27 4.793 1.908 6.687 5.25-6.046-.477-10.744-3.216-16-6a698.598 698.598 0 0 0-4-2v-1Z" fill="#BC9F91"/>
    <path d="m186 267 2.625.5c3.187.472 6.16.577 9.375.5v2l4-1v4c-3.313.688-3.313.688-7 1-1.563-1.25-1.563-1.25-3-3a133.473 133.473 0 0 0-6-3v-1Z" fill="#430D1C"/>
    <path d="m173 259 3 2-2.047-.07-2.703-.055-2.672-.07c-2.692.204-4.277.83-6.578 2.195v4h2v-3h8v1h-7l3 4c-4 0-4 0-6-1v2h-2c.481-7.336.481-7.336 2.563-10 3.678-1.509 6.46-1.316 10.437-1Z" fill="#7B4647"/>
    <path d="M302 214c3.846 3.846 3.242 8.814 3.313 14l.087 2.156c.045 3.648-.092 5.462-2.42 8.344L301 240l.496-3.406c.589-4.711.617-9.353.567-14.094l-.014-2.492c-.012-2.003-.03-4.005-.049-6.008Z" fill="#AD9080"/>
    <path d="M237 195h3l.75 2.25c1.414 3.11 2.484 4.732 5.25 6.75 3.668.334 3.668.334 7 0-2.25 2.063-2.25 2.063-5 4-3.452-.308-4.996-1.659-7.188-4.25-2.323-2.838-3.584-4.994-3.812-8.75Z" fill="#725546"/>
    <path d="M233 153h1v24c-3.558-5.336-3.48-11.738-3-18 1-3.563 1-3.563 2-6Z" fill="#F3F0ED"/>
    <path d="M269 256c-1.97 4.599-4.334 7.256-8.938 9.313-5.55 1.4-11.453.311-17.062-.313v-1l2.965.027c8.023-.181 13.335-.791 19.398-6.53C267 256 267 256 269 256Z" fill="#765643"/>
    <path d="M125 170h1c.125 5.75.125 5.75-1 8-.278 3.635-.447 7.27-.621 10.91L124 192l-2 1c-.081-2.709-.14-5.415-.188-8.125l-.076-2.305c-.064-4.972.608-8.206 3.264-12.57Z" fill="#F4F0F1"/>
    <path d="M138 157v2c-2.664 1.937-5.202 3.668-8.25 4.938-2.487 1.51-2.77 3.383-3.75 6.062-1.5 1.813-1.5 1.813-3 3h-2c1.405-4.47 3.593-6.837 7-10l2.063-2.188c2.447-2.29 4.526-3.812 7.937-3.812Z" fill="#867167"/>
    <path d="M239 114h1l1 9h9v1h-10l-.375 2.75c-.546 2.84-1.198 4.776-2.625 7.25h-2c-.261-3.048-.27-4.589 1.438-7.188 2.272-4.09 2.302-8.199 2.562-12.812Z" fill="#6F5242"/>
    <path d="M275 408h1c.19 11.359-.395 22.661-1 34h-1c-.192-4.36-.371-8.72-.537-13.08a869.16 869.16 0 0 0-.187-4.45 844.224 844.224 0 0 1-.253-6.396l-.158-3.888C273 411 273 411 275 408Z" fill="#56483E"/>
    <path d="M218 341h9v3h2v2l1.875.313C233 347 233 347 235 350l-1.863-.254-2.45-.308-2.425-.317c-2.43-.269-2.43-.269-5.262.879l2-8h-7v-1Z" fill="#5D1C25"/>
    <path d="M250 78h11v2l-1.871.008c-6.417.293-10.208 1.837-15.317 5.715C242 87 242 87 240 87c1.451-3.826 3.358-5.223 7-7h3v-2Z" fill="#6C4B39"/>
    <path d="M25 94c1.044 3.133.934 3.99 0 7h-3l.125 2.688c-.194 5.131-1.919 8.377-5.125 12.312-.92-8.457 3.595-15.044 8-22Z" fill="#434747"/>
    <path d="m249 298 2 2 2-1c-.386 2.798-.801 3.82-2.938 5.75C248 306 248 306 246 306l-2 10h-2c.857-8.571.857-8.571 3-12h2l2-6Z" fill="#45322B"/>
    <path d="M199 294h6l-1 4 9 1v1h-21v-1h8v-2l-2-1 1-2Z" fill="#CD9A85"/>
    <path d="M255 403c3.958 3.958 4.297 8.399 4.625 13.813l.227 3.519L260 423c-3.958-3.958-4.297-8.399-4.625-13.813l-.227-3.519L255 403Z" fill="#554B48"/>
    <path d="m217 364 4 2h-2c-.832 5.72-1.12 11.222-1 17-2.82-2.82-2.474-5.006-2.75-8.938l-.297-3.777C215 367 215 367 217 364Z" fill="#EEEBEC"/>
    <path d="M209 251c4.84.475 7.953 1.338 12 4 1.654.698 3.317 1.375 5 2l-3 2c-5.21-1.09-9.73-3.89-14-7v-1Z" fill="#6A4436"/>
    <path d="M240 166h2l-.254 2.012c-.8 6.535-.8 6.535.254 12.988-1.938-.313-1.938-.313-4-1-1.158-3.473-1.069-6.36-1-10h2l1-4Z" fill="#5C5C5B"/>
    <path d="M38 170c8.591-.44 15.469-.463 23 4-2.906 1.453-4.835.234-7.824-.586-3.288-.626-5.919-.093-9.176.586l1-2-7-1v-1Z" fill="#D2B4A3"/>
    <path d="M124 125h10l1 6h2l1 2 3 1c.688 2.063.688 2.063 1 4-2.622-1.049-3.794-1.65-5.25-4.125L136 132h-2l-1-5h-10l1-2Z" fill="#533829"/>
    <path d="M160.938 117.688c1.69.426 3.377.865 5.062 1.312 2.187.543 4.375 1.085 6.563 1.625 1.812.457 3.625.915 5.437 1.375v1c-5.636.24-10.486-.617-15.938-2l-2.36-.578A949.693 949.693 0 0 1 154 119c3-2 3-2 6.938-1.313Z" fill="#634132"/>
    <path d="M198 427c1.879 2.818 2.69 4.856 3.625 8.063.26.877.52 1.755.79 2.66C203 440 203 440 203 442h-3c-3.41-5.32-3.096-9.055-2-15Z" fill="#56453B"/>
    <path d="m267 221 .25 1.688c.972 2.996 2.773 4.888 4.75 7.312v2h2l-1 4h-2l-1.188-2.75c-1.89-3.391-3.667-5.04-6.812-7.25l1-2 2 1 1-4Z" fill="#8A6754"/>
    <path d="m292 192 9 1v1h-6l1.813 3.375 1.019 1.898c1.216 2.032 1.216 2.032 4.168 3.727l-3 1-1 2a1505.412 1505.412 0 0 1-3-5.875l-1.688-3.305C292 194 292 194 292 192Z" fill="#785C4B"/>
    <path d="M179 387h1v34h-1c-.335-4.359-.657-8.719-.964-13.08a835.56 835.56 0 0 0-.332-4.45 811.428 811.428 0 0 1-.462-6.396l-.285-3.888C177 390 177 390 179 387Z" fill="#5B4D42"/>
    <path d="M189 378h2l1 10 6 2c-1.688 1.125-1.688 1.125-4 2l-5-2v-12Z" fill="#4B3D32"/>
    <path d="M224 343c1.261 4.73.795 7.37-1 12-1.563 1.75-1.563 1.75-3 3l-1 2h-2c1.654-6.227 3.558-11.54 7-17Z" fill="#925764"/>
    <path d="M131 213a543.896 543.896 0 0 1 6.008 3.035c5.66 2.746 10.725 3.703 16.992 3.965v1c-6.993 1.19-11.533.994-18-2v-2l-5-2v-2Z" fill="#645147"/>
    <path d="M280 176h3c-.507 3.719-1.116 6.735-3 10h-2l-1 3h-3l.867-1.703c1.147-2.326 2.211-4.675 3.258-7.047l1.07-2.422L280 176Z" fill="#A38F86"/>
    <path d="M330 172h1c.365 6.323.365 6.323-1.313 9.438C328 183 328 183 325 183v3h-3c1.538-3.18 3.256-6.215 5.063-9.25l1.597-2.703L330 172Z" fill="#39271E"/>
    <path d="m256 71 3.875.313 2.18.175C264 72 264 72 266 75v3h2v2c-3 0-3 0-5.5-2.438L260 75l-3-1-1-3Z" fill="#4B3732"/>
    <path d="M240 317h1c.116 3.104.187 6.207.25 9.313l.102 2.67c.099 6.515.099 6.515-2.243 9.122C237 339 237 339 235 339v2c-2-1-2-1-3-3 5.75-4 5.75-4 8-4v-17Z" fill="#8E7468"/>
    <path d="M245 404c2 3 2 3 2 7h2v3h2c1.43 2.354 2.087 3.48 1.625 6.25L252 422l-.25-1.875L251 418l-1.938-.875C247 416 247 416 245.75 413.25c-.741-3.212-.906-5.967-.75-9.25Z" fill="#750717"/>
    <path d="M245 308c1.19 3.522.81 6.129.125 9.75-.86 4.746-1.572 9.46-2.125 14.25h-1v-16h2l-.063-2.875C244 310 244 310 245 308Z" fill="#20100C"/>
    <path d="M217 426c2.633 3.95 3.123 6.549 3.063 11.188l-.028 2.73L220 442h-3v-16Z" fill="#4E4842"/>
    <path d="M86 220c3.837.96 4.597 1.236 7 4h-3v6l-3 1-1-11Z" fill="#31201A"/>
    <path d="M319 141h2c1.655 3.31 1.1 6.991 1.063 10.625l-.014 2.43c-.012 1.981-.03 3.963-.049 5.945h-2l-1-19Z" fill="#170905"/>
    <path d="M289 112h1c.375 6.786-.123 11.804-3 18l-2 2c.57-6.957 2.013-13.314 4-20Z" fill="#4D3932"/>
    <path d="M174 265c8.571-.286 8.571-.286 12 2l-3 1v3c-3.483-.645-6.094-1.982-9-4v-2Z" fill="#93515E"/>
    <path d="M60 223v2l1.688.375c2.533.685 4.891 1.616 7.312 2.625-3 2-3 2-4.89 1.754-2.344-.838-4.596-1.784-6.86-2.816l-2.422-1.098L53 225c3-2 3-2 7-2Z" fill="#916E5A"/>
    <path d="m161 354 3 1-1 1.938c-1.33 4.074-1.167 7.814-1 12.062l-4 2c.308-2.459.621-4.917.938-7.375l.263-2.117c.686-5.281.686-5.281 1.799-7.508Z" fill="#16161B"/>
    <path d="m248 338 10 3-3 1 1 6-3 1-2-8h-2l-1-3Z" fill="#4A3B32"/>
    <path d="M173 226c0 3.411-.491 6.63-1 10h-2v5h2l-1 3-4-1c.425-2.086.866-4.169 1.313-6.25l.738-3.516c.906-3.088 1.842-4.85 3.949-7.234Z" fill="#8F6959"/>
    <path d="m242 199 16 1v1l-9 1v3c-3.243-.56-4.93-1.413-7-4v-2Z" fill="#CBAF9E"/>
    <path d="M10 178c1.457 2.914.689 4.87 0 8l-1.004 1.867c-1.177 2.52-1.403 4.618-1.621 7.383l-.227 2.703L7 200H6c-1.408-8.05-.857-13.734 3-21l1-1Z" fill="#565756"/>
    <path d="M153 119c6.251.43 12.042 1.014 18 3v1h-5v2c-3-1-3-1-5-3l-1 2-4-2v-2l-3-1Z" fill="#C9AB9B"/>
    <path d="M183 424h1l1 18h-3c-.027-2.062-.046-4.125-.063-6.188l-.035-3.48c.086-2.925.42-5.495 1.098-8.332Z" fill="#4B3C31"/>
    <path d="M174 262c10.558.964 10.558.964 15 2-3.644 2.43-4.93 2.083-9.188 1.625l-3.292-.336L174 265v-3Z" fill="#350C0E"/>
    <path d="M285 201c2.867.573 3.861.861 6 3 .125 2.625.125 2.625 0 5h-3v-2l-3-1v-5Z" fill="#1C0A05"/>
    <path d="m23 150 1 2 3 1v2h2l2 7-4 1-.875-2.75c-.997-3.128-.997-3.128-2.25-5.438C23 153 23 153 23 150Z" fill="#21282C"/>
    <path d="m331 120-1 5h2l1 9c-2.83-3.37-4.31-6.96-6-11l-2-3c3.75-1.125 3.75-1.125 6 0Z" fill="#5B473F"/>
    <path d="M249.938 67.563 252 68l1 2-1 2-2-1 1-2h-2l-.688 1.813c-1.673 2.789-3.4 3.804-6.312 5.187l-2-1c6.074-6.862 6.074-6.862 9.938-7.438Z" fill="#AC9388"/>
    <path d="M172 291c1.316.45 2.627.91 3.938 1.375l2.214.773C180 294 180 294 181 296h-4v2h3v4h-2v-2l-4-2 1-4-3-1v-2Z" fill="#D2A996"/>
    <path d="m84 211 4 1-.563 2.375c-.697 2.596-.697 2.596.563 4.625-3.791-1.45-7.387-3.152-11-5v-1h7v-2Z" fill="#D4B19C"/>
    <path d="M25 175c.715 1.703.715 1.703 1 4-1.434 2.36-1.434 2.36-3.438 4.75l-1.996 2.422L19 188c-.715-1.703-.715-1.703-1-4 1.434-2.36 1.434-2.36 3.438-4.75l1.996-2.422L25 175Z" fill="#BFA89A"/>
    <path d="M19 136c1.978 1.376 2.89 2.514 3.422 4.875.383 3.067.578 6.032.578 9.125-2-1-2-1-3.125-3.063-1.133-3.804-1.01-6.974-.875-10.937Z" fill="#1E2425"/>
    <path d="m269 82 5 5-1.938.375L270 88l-1 2-11-1v-1l9-1 2-5Z" fill="#D6B3A1"/>
    <path d="m273 189 3 1c-7.683 7.04-7.683 7.04-12 8l-3-2 2.117-1.023 2.758-1.352 2.742-1.336c2.478-1.194 2.478-1.194 4.383-3.289Z" fill="#8E7F75"/>
    <path d="M234 177c4.096 5.165 5 10.445 5 17-3.592-4.403-5.135-6.44-5.063-12.125l.028-2.758L234 177Z" fill="#EBE4E5"/>
    <path d="M283 157h1l1 13h-3a312.35 312.35 0 0 1-.625-4.813l-.352-2.707C281 160 281 160 283 157Z" fill="#665347"/>
    <path d="M242 337h6l-3 1v12l-3-2c-.293-2.602-.293-2.602-.188-5.625l.083-3.04L242 337Z" fill="#58514F"/>
    <path d="m94 256 2 1 2 7 2 1-2 4a983.483 983.483 0 0 1-3-4.875l-1.688-2.742C92 259 92 259 92 257l2-1Z" fill="#2A2118"/>
    <path d="M293 251c0 3.625-.925 5.08-3 8l-3 1v2l-5 2c.999-2.997 1.651-4.027 4-6h2v-2h2l.938-1.938C292 252 292 252 293 251Z" fill="#5B453E"/>
    <path d="M244 104c0 3.528-1.264 5.194-3.043 8.148-1.315 2.545-1.68 5.022-1.957 7.852h-1a336.784 336.784 0 0 1-.125-4.75l-.07-2.672c.204-2.692.83-4.277 2.195-6.578h2l2-2Z" fill="#A88A7A"/>
    <path d="M211 359h1v6l1.375-1.375L217 360v2l4 2-1.813.313c-2.47.776-3.51 1.758-5.187 3.687l-3-2c-.188-3.625-.188-3.625 0-7Z" fill="#8A7E81"/>
    <path d="M94 232c-2 2-2 2-4.82 2.195l-3.305-.07-3.32-.055L80 234l-1-2c5.346-1.002 9.624-.849 15 0Z" fill="#4A2F24"/>
    <path d="M155 275c4.567 2.87 7.242 4.727 9 10l3 1v2c-3.615-1.498-5.686-3.575-8.25-6.5l-2.14-2.406C155 277 155 277 155 275Z" fill="#D5A58E"/>
    <path d="m169 186 1 2h2c.25 3.313.25 3.313 0 7-2 1.938-2 1.938-4 3l-2-1 2-2c.46-2.203.46-2.203.625-4.625l.227-2.477L169 186Z" fill="#9F9F9F"/>
    <path d="M166 157c3.591 1.334 6.884 2.75 10 5 .813 2.188.813 2.188 1 4-8.315-4.637-8.315-4.637-11-7v-2Z" fill="#827066"/>
    <path d="m81 39 2 1-4 1 1 3c-.938 2.188-.938 2.188-2 4h-2l-2-3-2-1a431.773 431.773 0 0 1 4.375-2.563l2.46-1.44L81 39Z" fill="#342D2B"/>
    <path d="M314 418c2.042 1.692 2.918 2.637 3.512 5.262l.175 2.425.2 2.45L318 430h-2a908.47 908.47 0 0 1-1-4.313l-.563-2.425C314 421 314 421 314 418Z" fill="#322D2D"/>
    <path d="m136 290 6 2v2l5 1-1 2c-1.648-.449-3.294-.91-4.938-1.375l-2.777-.773C136 294 136 294 135 292l1-2Z" fill="#2F2925"/>
    <path d="M40 235c4.43 1.208 6.981 2.517 10 6-3.766 1.255-5.372.37-9-1l-1-5Z" fill="#45312F"/>
    <path d="m299 204 3 1v4h2l-1 5h-2c-2.094-3.402-2.18-6.053-2-10Z" fill="#3F2B24"/>
    <path d="m18 168 2 4c-2.88 2.4-5.564 4.473-9 6 1.394-4.435 3.606-6.874 7-10Z" fill="#31363A"/>
    <path d="m134 160 2 1c-1.375 2.5-1.375 2.5-3 5h-2v2h-3v2h-2c1.432-5.011 3.984-6.945 8-10Z" fill="#E3D8D3"/>
    <path d="m67 47 1 2c-2 2-2 2-4 3-1.134 2.017-1.134 2.017-2 4l-4-2 9-7Z" fill="#29211F"/>
    <path d="M217 416h1l1 13h-1l-1 8h-1c-.097-7.094-.1-13.982 1-21Z" fill="#5E5751"/>
    <path d="m236 381 2 1 1 3 3 2c.188 3.125.188 3.125 0 6h2l-1 4c-5.371-10.374-5.371-10.374-7-16Z" fill="#D0ACB3"/>
    <path d="M273 344h2c4.125 8.25 4.125 8.25 3.563 13.125l-.31 2.758L278 362h-1l-.367-1.906A272.793 272.793 0 0 0 273 344Z" fill="#413830"/>
    <path d="m23 183 1 2h-2l-3 13h-1c-.767-8.776-.767-8.776 1.113-11.777C20.5 184.875 20.5 184.875 23 183Z" fill="#DFC1AC"/>
    <path d="M322 160h1c1.567 6.869 1.567 6.869-.047 10.09-1.237 1.699-2.588 3.312-3.953 4.91-1.572-3.143-.117-5.365.938-8.625l1.152-3.602L322 160Z" fill="#B99A8E"/>
    <path d="m80 110 4 1v2h3v7c-3.336-2.99-5.15-5.932-7-10Z" fill="#B5998F"/>
    <path d="m45 74 2 1-1 5h-2l-1 5-7 1c3-2 3-2 6-3 1.023-2.097 1.023-2.097 1.688-4.563.25-.826.502-1.652.761-2.503L45 74Z" fill="#19110A"/>
    <path d="M252 390h3c1.374 3.818.68 7.073 0 11l-2-1c-.414-2.285-.414-2.285-.625-5.063l-.227-2.785L252 390Z" fill="#4B423F"/>
    <path d="M232 379c3.21 1.107 4.01 2.016 5.813 5l1.187 3-1 2c-3-2-3-2-5-5h-1v-5Z" fill="#601426"/>
    <path d="M209 343h15l-1 3v-2h-11v6l-1-4h-2v-3Z" fill="#E5DFDF"/>
    <path d="m170 236 3 1c1.216 3.457 2 6.328 2 10l-3-1v-5h-2v-5Z" fill="#724E40"/>
    <path d="M316 172c1.148 1.703 1.148 1.703 2 4-.898 2.36-.898 2.36-2.375 4.75l-1.46 2.422c-.385.603-.77 1.206-1.165 1.828l-3-2 1.875-2.125c2.168-2.933 3.152-5.387 4.125-8.875Z" fill="#7E5949"/>
    <path d="M184 107v2c-4.62.96-8.681.961-13.375.563l-3.773-.31L164 109v-1c2.77-.168 5.542-.334 8.313-.5l2.38-.145 2.295-.136 2.11-.127c1.633-.079 3.268-.092 4.902-.092Z" fill="#8A6753"/>
    <path d="m238 86 3 1c-1.333 4-3.496 4.838-7 7l-2-2 3-1c1.15-1.967 1.15-1.967 2-4l1-1Z" fill="#8F6C57"/>
    <path d="M221 355c1.43 2.862.6 4.934 0 8l4 2-2 1a125.024 125.024 0 0 1-6-4v-2h2l2-5Z" fill="#5D0F1F"/>
    <path d="m182 267 7 1 1 4h-6l-2-5Z" fill="#CB7587"/>
    <path d="M69 213c4.921-.167 8.503-.248 13 2-2.41 1.537-3.5 2.098-6.36 1.54-.788-.303-1.577-.604-2.39-.915l-2.422-.898L69 214v-1Z" fill="#805D47"/>
    <path d="M90 197h7l1 6c-3.366-1.443-5.51-3.333-8-6Z" fill="#331D13"/>
    <path d="M231 176c2.236 3.353 2.173 3.907 1.625 7.688l-.336 2.449L232 188h-1c-1.316-3.62-2-6.096-2-10h2v-2Z" fill="#988077"/>
    <path d="M230 145h2a491.948 491.948 0 0 1-.375 5.375l-.21 3.023C231 156 231 156 229 158a700.574 700.574 0 0 1-.063-4.813l-.035-2.707C229 148 229 148 230 145Z" fill="#604B41"/>
    <path d="M206 397h2c-.573 3.87-2.39 6.152-5 9h-2c.25-1.875.25-1.875 1-4 2.063-1.25 2.063-1.25 4-2v-3Z" fill="#402F25"/>
    <path d="M232 372c1.414 2.639 2.372 5.071 3 8l-3-1v7h-1c-.027-2.146-.046-4.292-.063-6.438l-.035-3.62C231 373 231 373 232 372Z" fill="#60454C"/>
    <path d="M221 365c3.313.625 3.313.625 7 2 1.938 3.125 1.938 3.125 3 6-4.723-1.491-4.723-1.491-6.125-4.063L224 367l-3-1v-1Z" fill="#7E414D"/>
    <path d="M148 261a133.469 133.469 0 0 1 4.688 7.563l1.386 2.378L155 273l-1 2c-3.33-2.696-4.545-6.05-6-10v-4Z" fill="#DAAB94"/>
    <path d="m286 176 1.375 1.875c1.596 2.184 1.596 2.184 3.625 4.125l1 3h-3l-1 2c-1.423-3.823-2.24-6.913-2-11Z" fill="#705444"/>
    <path d="M109 133c2 2 2 2 2 5h-2l-1 5-3-2c1.125-2.972 2.223-5.334 4-8Z" fill="#A8836D"/>
    <path d="m239 360 5 1v3l-5-1-1 5h-2c1.875-5.75 1.875-5.75 3-8Z" fill="#C8ACB2"/>
    <path d="M242 336v8l-1.25-1.375c-1.814-1.685-3.503-2.618-5.75-3.625 4.75-3 4.75-3 7-3Z" fill="#CFCBC8"/>
    <path d="M270 273c-1.528 3.438-3.502 6.19-6 9h-2c.46-4.147 3.516-9 8-9Z" fill="#D7B3A3"/>
    <path d="m116 273 10 1 1 4c-4.128-.607-7.332-2.038-11-4v-1Z" fill="#B29789"/>
    <path d="M101 268c4.875 4.75 4.875 4.75 6 7l-2 2-6-7 2-2Z" fill="#211915"/>
    <path d="m66 245 18 1v1c-2.06.223-4.124.428-6.188.625l-3.48.352C70.967 248 68.988 247.474 66 246v-1Z" fill="#321F19"/>
    <path d="m299 238 2 2c-.395 2.963-1.598 5.383-3 8h-2v-4h2l-1-3 2-3Z" fill="#BF9E92"/>
    <path d="M281 165h1v6h2l1 5h-2l-2 2v-13Z" fill="#8E7E78"/>
    <path d="m126 164 2 3c-1.813 3-1.813 3-4 6h-3c1.25-3.46 2.675-6.147 5-9Z" fill="#937A6F"/>
    <path d="m235 146 1 2h-2l.125 2.125c-.142 3.259-.992 5.831-2.125 8.875h-1c-.63-8.193-.63-8.193 2-11.563l2-1.437Z" fill="#DBD2CF"/>
    <path d="M263.438 139.813C267 141 267 141 270 143v2c-1.44-.453-2.876-.912-4.313-1.375l-2.425-.773C261 142 261 142 258 140c2-1 2-1 5.438-.188Z" fill="#7F6B65"/>
    <path d="M332 128h2v2h2v8l-1-2h-2l-1-8Z" fill="#271513"/>
    <path d="m299 120 1 2-4 6-4-1c2.22-2.908 3.93-4.953 7-7Z" fill="#A58A7D"/>
    <path d="m161 122 4 1-1 1 2 1v-2h3l-2 7-1-4-5-1v-3Z" fill="#E1C1AD"/>
    <path d="M261 114c0 3 0 3-1.531 4.605l-1.969 1.582-1.969 1.606L254 123l-2-1c1.564-3.127 2.414-4.721 5.625-6.25L260 115l1-1Z" fill="#554239"/>
    <path d="m271 91 1 3-14-2v-1c1.415-.197 2.832-.382 4.25-.563l2.39-.316c2.423-.124 4.11-.032 6.36.879Z" fill="#8B6E5A"/>
    <path d="M229 341c2.063.438 2.063.438 4 1h-3v2h4l1 5c-5.757-2.45-5.757-2.45-6.938-5.125L228 342l1-1Z" fill="#CAADB3"/>
    <path d="m247 300 1 2-1 2h-2l-2 8c-1.125-1.688-1.125-1.688-2-4 .875-2.75.875-2.75 2-5h3l1-3Z" fill="#C8A897"/>
    <path d="M267 215h1c.18 3.947.094 6.598-2 10l-4-1v-2h3l.438-1.813c.45-1.749.99-3.474 1.562-5.187Z" fill="#694937"/>
    <path d="M177 210c-1.37 3.161-1.99 3.993-5 6-2.188-.375-2.188-.375-4-1 5.625-5 5.625-5 9-5Z" fill="#81726C"/>
    <path d="m319 157 1 3h2l-1 8h-2v-11Z" fill="#402B1F"/>
    <path d="M306 131h10v1l-2.688.875A139.917 139.917 0 0 0 305 136l1-5Z" fill="#B49385"/>
    <path d="M262 386c-1.12 3.36-2.372 4.69-5 7h-2c.313-2.375.313-2.375 1-5 3-2 3-2 6-2Z" fill="#382820"/>
    <path d="M235 368c.625 1.813.625 1.813 1 4l-2 3h2v6c-2.33-3.496-2.703-5.841-3-10l2-3Z" fill="#C1AAAD"/>
    <path d="M191 334h3v4h-2l-1 3-4-1 3-2c.724-2.06.724-2.06 1-4Z" fill="#59595C"/>
    <path d="m171 309 6 1 1 4h3l-1 2c-3.534-1.963-6.245-4.04-9-7Z" fill="#48484C"/>
    <path d="m168 242 1 2a125.024 125.024 0 0 1-4 6h-2c.542-3.796 2.201-5.472 5-8Z" fill="#774E3E"/>
    <path d="m173 243 2.25 1.375A89.434 89.434 0 0 0 182 248v2h-4v-2h-3l-2-5Z" fill="#613C2C"/>
    <path d="m205 224 3 1-1 7-3-1h2l-2-3c.375-2.188.375-2.188 1-4Z" fill="#D2AD9D"/>
    <path d="m30 173-2.688 1.688c-3.155 2.09-5.71 4.558-8.312 7.312l2-4 .813-2.125C23.75 172.815 26.66 171.33 30 173Z" fill="#504039"/>
    <path d="M304 158h3c-.188 1.813-.188 1.813-1 4-2.563 1.75-2.563 1.75-5 3 .75-4.75.75-4.75 3-7Z" fill="#835E4B"/>
    <path d="M259 121v3c-2.375 1.75-2.375 1.75-5 3l-2-1v-2h2v-2c3-1 3-1 5-1Z" fill="#E5C1AD"/>
    <path d="M261 428c2.203 4.406 3.11 6.975 3 12l-1-3-3-1 1-8Z" fill="#594540"/>
    <path d="M267 372c1.563 1.75 1.563 1.75 3 4-.313 2.25-.313 2.25-1 4h-3c-.125-5.75-.125-5.75 1-8Z" fill="#4F4136"/>
    <path d="m283 362 1 3 3 1 1 8c-2.734-2.36-3.911-4.565-5-8v-4Z" fill="#3B2E2A"/>
    <path d="m279 355 1 3h2l1 6-4-2v-7Z" fill="#61564F"/>
    <path d="m281 264 1 2c-1.433 2.729-2.817 4.817-5 7l-3-1 7-8Z" fill="#26150F"/>
    <path d="m149 258 1 2-9 1v-3c5.75-1.125 5.75-1.125 8 0Z" fill="#906C53"/>
    <path d="M48 220c4.401.503 6.712 2.088 10 5-1.482-.254-2.96-.53-4.438-.813l-2.496-.457L49 223l-1-3Z" fill="#5B3A27"/>
    <path d="m41 212 6 1 1 5-4-2v-2l-3-1v-1Z" fill="#D3B29C"/>
    <path d="M121 196c1.402 2.617 2.605 5.037 3 8l-2 2c-2.567-3.85-1.833-5.586-1-10Z" fill="#958274"/>
    <path d="M318 189c0 4.39-2.128 5.77-5 9l-4-1 9-8Z" fill="#634B42"/>
    <path d="m305 136 1 2h6v1l-8 1v2h-2v-4l3-2Z" fill="#67493A"/>
    <path d="m134 127 1 4h2l1 2 3 1c.688 2.063.688 2.063 1 4-2.622-1.049-3.794-1.65-5.25-4.125L136 132h-2v-5Z" fill="#3C2A21"/>
    <path d="M82.426 87.668c2.54.018 5.043.118 7.574.332-3.445 2.296-5.938 2.54-10 3l-1 3-2-1c1.135-3.242 1.89-4.848 5.426-5.332Z" fill="#3A2A26"/>
    <path d="M43 74c1.102 4.408.587 5.892-1 10l-5 1 1-2h2l3-9Z" fill="#776C61"/>
    <path d="M211 354c2 4 2 4 2 7l3 1-2 3h-2l-1-11Z" fill="#CDC6C9"/>
    <path d="M244 352h2l1 12-3-2c-.293-2.383-.293-2.383-.188-5.125l.083-2.758L244 352Z" fill="#3A312D"/>
    <path d="m226 348 4 1h-3l-.813 3.438L225 356l-3 1c1.059-3.403 2.009-6.014 4-9Z" fill="#8E051A"/>
    <path d="M200 324c2.834 3.203 3.52 5.78 4 10-2-1.063-2-1.063-4-3-.25-3.688-.25-3.688 0-7Z" fill="#3E2D29"/>
    <path d="m185 287 11 2c-4 2-4 2-6.625 1.813C187 290 187 290 185 287Z" fill="#834F41"/>
    <path d="m280 267-6 6-2-1c.75-2.438.75-2.438 2-5 2.593-1.134 3.447-1.276 6 0Z" fill="#9A8073"/>
    <path d="m25 220 7 4-2 4c-3-3.75-3-3.75-3-6h-2v-2Z" fill="#AD9086"/>
    <path d="m197 222-1 3-12-2v-1c8.429-1.286 8.429-1.286 13 0Z" fill="#765845"/>
    <path d="m172 216-6 4-4-2a327.76 327.76 0 0 1 3.875-1.563l2.18-.878C170 215 170 215 172 216Z" fill="#695850"/>
    <path d="M68 197a158.814 158.814 0 0 1 6 5v2c-3.366-1.443-5.51-3.333-8-6l2-1Z" fill="#6D4936"/>
    <path d="M307.188 192.375 309 193c-1.313 2-1.313 2-3 4h-3l-1-3c3-2 3-2 5.188-1.625Z" fill="#E8BFAA"/>
    <path d="M122 172c1.124 3.304.896 5.05-.438 8.25l-.87 2.14L120 184h-1c.115-1.438.242-2.876.375-4.313.07-.8.14-1.6.21-2.425C120 175 120 175 122 172Z" fill="#7F675F"/>
    <path d="M333 160h1c.081 1.437.14 2.874.188 4.313l.105 2.425c-.355 2.74-1.187 3.554-3.293 5.262.142-1.438.289-2.875.438-4.313.08-.8.162-1.6.246-2.425C332 163 332 163 333 160Z" fill="#624A3E"/>
    <path d="m167 154 3 1v3l-4-1v2l-4-2c2.313-1.563 2.313-1.563 5-3Z" fill="#BFA89B"/>
    <path d="M187 151h2c2.296 2.561 3 3.48 3 7-3.161-1.37-3.993-1.99-6-5l1-2Z" fill="#9F7964"/>
    <path d="m161 125 5 1 1 10-2-4a284.605 284.605 0 0 0-2.125-3.75L161 125Z" fill="#9D8678"/>
    <path d="m229 107 3 1c-2.528 2.799-4.204 4.458-8 5v-2c2.313-2.188 2.313-2.188 5-4Z" fill="#8A644F"/>
    <path d="m225 108 2 2-3 1v2l4-1v2h-6c.375-2.438.375-2.438 1-5l2-1Z" fill="#D0A991"/>
    <path d="m236 101 2 3c-4.75 4-4.75 4-7 4 1.293-2.884 2.66-4.872 5-7Z" fill="#79543F"/>
    <path d="m288 101 4 2-1 9h-1l-2-11Z" fill="#4B382E"/>
    <path d="M136 103c6.625-.25 6.625-.25 10 2l-1 1c-6.6-.6-6.6-.6-9-3Z" fill="#654438"/>
    <path d="M148 21c-1.5 1.563-1.5 1.563-4 3-2.774-.032-5.253-.496-8-1 3.9-2.6 7.474-2.15 12-2Z" fill="#4C4A46"/>
    <path d="M223 272h2l-1 9-3-1 2-8Z" fill="#804F42"/>
    <path d="M174 265c3.242.35 4.615.562 6.813 3.063L182 270c-2.929-.628-5.361-1.586-8-3v-2Z" fill="#6E2734"/>
    <path d="m229 264 7 1-3 3-5-2 1-2Z" fill="#B58478"/>
    <path d="M28 226c1.316.953 2.628 1.913 3.938 2.875l2.214 1.617C36 232 36 232 37 234c-2.25.375-2.25.375-5 0-4-4.973-4-4.973-4-8Z" fill="#241511"/>
    <path d="M21 227c2.784 1.392 2.979 3.156 4 6-3 0-3 0-4.688-1.375C19 230 19 230 19 228l2-1Z" fill="#201610"/>
    <path d="m177 223 3 2-8 6c1.625-5.75 1.625-5.75 5-8Z" fill="#775441"/>
    <path d="M130 210c1.938.375 1.938.375 4 1l1 2 3 1 1 3c-4.419-1.35-6.343-3.261-9-7Z" fill="#DCD1CC"/>
    <path d="m284 200 4 1h-3v7l-3-1 2-7Z" fill="#9A7D6F"/>
    <path d="M253 205c-4.43 3.077-4.43 3.077-7.313 2.688L244 207v-2c3.378-.845 5.675-1.108 9 0Z" fill="#60432F"/>
    <path d="M183 194c1.159 4.635.7 7.333 0 12l-3-2 3-10Z" fill="#A3918C"/>
    <path d="M125 170h1c.125 2.875.125 2.875 0 6l-2 2h-2c1.875-6.875 1.875-6.875 3-8Z" fill="#E1D9D6"/>
    <path d="M48 170c4.973.497 8.638 1.553 13 4-2 1-2 1-4.813.188A258.282 258.282 0 0 1 48 171v-1Z" fill="#937A71"/>
    <path d="M178 355v1l-5 1-1 3-3 1v-4c3.435-2.29 4.985-2.178 9-2Z" fill="#2E2321"/>
    <path d="m235 350 4 2-1 2-2-1 1 5-4-5 2-1v-2Z" fill="#8F2839"/>
    <path d="m248 338 10 3-3 1-1 2-1-2-2-.438-2-.562-1-3Z" fill="#514642"/>
    <path d="m262 264-1 3-7 1v-2c5.75-2 5.75-2 8-2Z" fill="#CFAC98"/>
    <path d="m223 259 5 2v3l-6 1 2-1-1-5Z" fill="#AD8176"/>
    <path d="M296 248h2c-.188 2.375-.188 2.375-1 5-2.563 1.313-2.563 1.313-5 2l4-7Z" fill="#291913"/>
    <path d="m93 200 5 3 1-2 1 4h-5l-2-5Z" fill="#9F7E6B"/>
    <path d="m240 196 8 2v2h-7l-1-4Z" fill="#89776E"/>
    <path d="m69 197 5 1 1 7-3-1h2l-5-7Z" fill="#BE9A86"/>
    <path d="M85 192c4.875 4.75 4.875 4.75 6 7h-5l-1-7Z" fill="#B69988"/>
    <path d="m292 192 9 1v1h-6l1 3h-3l-1-5Z" fill="#6D5245"/>
    <path d="m327 177 1 2a135.916 135.916 0 0 1-3 7h-3c1.498-3.112 3.2-6.053 5-9Z" fill="#6F594D"/>
    <path d="M135 155c2.962.613 4.38 1.254 7 3l-4 1v-2l-5 2 2-4Z" fill="#BEA89C"/>
    <path d="m232 142 1 2 5-1a282.832 282.832 0 0 1-5 5h-1v-6Z" fill="#85736B"/>
    <path d="m234 139 1 3 1.813-.625C239 141 239 141 242 143c-3.073.91-5.801 1.089-9 1l1-5Z" fill="#B8A295"/>
    <path d="M248 140c-2.967 1.648-5.656 2.443-9 3l1-3c2.862-1.43 4.934-.6 8 0Z" fill="#846F64"/>
    <path d="m164 118-2 2c-2.729-.033-5.297-.564-8-1 3.85-2.567 5.586-1.833 10-1Z" fill="#785648"/>
    <path d="M246 103h2c-.188 1.813-.188 1.813-1 4-2.563 1.75-2.563 1.75-5 3a56.54 56.54 0 0 1 4-7Z" fill="#2D1E17"/>
    <path d="m287 436 3 1v5h-3v-6Z" fill="#483931"/>
    <path d="M255 422h3l1 7c-2.5-2.174-3.436-3.73-4-7Z" fill="#CCB1B5"/>
    <path d="m204 334 2 1v4l4 2h-7l1-7Z" fill="#2E2019"/>
    <path d="m186 305 3 1 1 5-3-1v-2l-3-1 2-2Z" fill="#9E8677"/>
    <path d="M32 241h6v3l-2 1-4-4Z" fill="#322928"/>
    <path d="m265 208 2 1c.75 2.875.75 2.875 1 6l-2 3a543.754 543.754 0 0 1-1.063-4.438l-.597-2.496L264 209l1-1Z" fill="#886753"/>
    <path d="M25 175c.688 1.813.688 1.813 1 4-1.438 1.75-1.438 1.75-3 3l-2-2 4-5Z" fill="#C8AC9E"/>
    <path d="m24 163 2 1-2 4h-5l5-5Z" fill="#373D3E"/>
    <path d="M313.438 131.75 316 132l2 3-6-1-1 2-1-3c1-1 1-1 3.438-1.25Z" fill="#321D18"/>
    <path d="M239 103h5c-1.75 3.875-1.75 3.875-4 5l-1-5Z" fill="#E1BEAB"/>
</svg>
